<svg width="183" height="46" viewBox="0 0 183 46" fill="none" xmlns="http://www.w3.org/2000/svg">
<g clip-path="url(#clip0_74_277)">
<path d="M55.8752 18.4721C57.968 18.4721 59.6644 16.775 59.6644 14.6817C59.6644 12.5882 57.968 10.8914 55.8752 10.8914C53.7823 10.8914 52.0859 12.5882 52.0859 14.6817C52.0859 16.775 53.7823 18.4721 55.8752 18.4721ZM180.932 31.4225C180.356 31.0171 179.911 30.9499 179.542 31.7371C173.177 45.5214 162.452 38.6428 163.518 39.2482C165.897 38.16 172.153 33.1421 171.208 26.2135C170.633 21.9792 166.999 20.101 163.142 20.7735C156.408 21.9475 153.931 29.2103 155.192 35.6403C155.413 36.7446 155.807 37.6553 156.201 38.5475C148.592 44.7353 145.57 33.0082 145.227 31.6067C145.213 31.5317 151.102 26.6232 152.74 14.9264C154.457 2.66745 150.546 0.435307 146.547 0.50495C139.147 0.633879 137.148 16.095 139.834 28.9807C139.609 29.0392 138.562 29.6192 136.879 29.6842C135.669 25.8746 130.496 22.5353 129.142 23.8221C125.753 27.041 129.963 33.3342 132.926 33.8278C131.146 44.7889 120.017 42.0742 122.088 28.3417C125.713 21.6114 128.469 11.6039 127.977 5.56245C127.803 3.42352 126.222 0.557807 122.645 0.69995C115.766 0.972093 115.018 16.4375 115.825 27.4139C115.785 27.1435 115.402 28.7474 112.583 29.5449C111.916 25.8439 105.957 22.1289 104.554 23.9149C101.928 27.2578 106.479 33.2182 108.635 33.6339C106.855 44.5946 95.7259 41.88 97.7977 28.1475C101.422 21.4175 104.178 11.41 103.686 5.36852C103.512 3.22924 101.931 0.363522 98.3541 0.505307C91.4752 0.777807 90.7273 16.2432 91.5337 27.2196C91.4934 26.945 91.1016 28.6017 88.1677 29.386C88.0694 24.5842 82.0884 22.3825 80.6516 23.9146C78.0909 26.6457 81.238 32.2492 84.1494 33.6339C82.3698 44.5946 71.2405 41.88 73.3123 28.1475C76.9366 21.4175 79.693 11.41 79.2009 5.36852C79.0269 3.22924 77.4455 0.363522 73.8687 0.505307C66.9902 0.777807 66.4366 17.0207 67.243 27.9967C64.9773 37.7042 57.3791 49.8271 58.3662 25.5425C58.4637 23.8389 58.5702 23.1921 57.7209 22.5542C57.0844 22.0585 55.6373 22.2971 54.8462 22.3167C53.8848 22.3553 53.6437 22.9178 53.4312 23.7682C52.9362 25.9639 52.8473 28.0924 52.7766 30.9967C52.7301 32.3553 52.6212 32.9892 52.098 34.8417C51.5755 36.6939 48.5944 40.0792 46.9623 39.5132C44.698 38.7346 45.4409 32.3425 45.8652 27.9507C46.2187 24.4799 45.0866 22.9214 42.1859 22.3546C40.4876 22.0007 39.4559 22.055 37.6873 21.4974C36.0148 20.9703 35.6366 17.8067 32.0694 18.861C30.1184 19.4382 31.3726 23.5721 30.9037 26.636C28.5984 41.7078 23.8016 42.1217 21.5762 34.8003C31.5987 10.2535 24.4755 0.576379 20.3059 0.576379C15.963 0.576379 10.9987 3.56781 13.1009 22.7078C12.0787 22.4096 11.7644 22.2489 10.6455 22.2489C4.31729 22.2489 0.00585938 27.3646 0.00585938 33.6753C0.00585938 39.986 4.31765 45.1021 10.6459 45.1021C14.3816 45.1021 17.0044 43.4032 18.9909 40.7749C20.2869 42.631 21.8651 45.1307 24.7512 45.0182C33.3537 44.6832 35.8555 27.0371 36.1509 26.0528C37.0705 26.1946 37.9405 26.4628 38.7898 26.6046C40.2048 26.8171 40.3076 27.3771 40.2755 28.8003C39.9005 40.8017 42.1152 45.0039 47.1387 45.0039C49.9376 45.0039 52.4323 42.2539 54.1509 40.2874C55.4344 42.9367 57.4798 44.9228 60.2237 45.0035C66.8727 45.1689 69.4184 34.5714 69.1862 35.966C69.0041 37.0603 71.3434 44.9439 78.1884 44.9725C86.6673 45.0082 88.2434 35.6839 88.4312 34.1221C88.4548 33.8114 88.4652 33.8435 88.4312 34.1221L88.4248 34.2167C91.1166 33.716 92.5055 32.2728 92.5055 32.2728C92.5055 32.2728 94.6669 45.1175 102.673 44.9728C110.988 44.8221 112.556 36.3935 112.761 34.75C112.788 34.36 112.804 34.4057 112.761 34.75C112.76 34.766 112.759 34.7821 112.758 34.7982C115.956 33.635 116.797 32.4675 116.797 32.4675C116.797 32.4675 118.514 45.0567 126.964 45.1667C134.494 45.2653 137.285 37.5542 137.302 34.3267C138.572 34.3403 140.921 33.5732 140.866 33.5296C140.866 33.5296 143.624 44.5367 151.327 45.1021C154.943 45.3675 157.656 43.0671 159.202 42.0178C162.837 44.961 174.938 48.7203 182.58 35.7649C183.658 33.9057 181.339 31.7092 180.932 31.4225ZM10.3405 40.8285C6.64836 40.8285 4.28086 37.4146 4.28086 33.7335C4.28086 30.0528 6.45407 26.6389 10.1462 26.6389C11.8076 26.6389 12.7319 26.8217 14.0259 27.9471C14.2605 28.8717 14.9255 31.0046 15.2491 31.9732C15.6826 33.2692 16.1984 34.3725 16.7184 35.5732C15.9755 38.6528 13.5401 40.8285 10.3405 40.8285ZM19.3376 28.0553C19.1841 27.8107 19.2162 27.961 19.0444 27.73C18.3676 25.8889 17.0634 21.7796 16.9123 17.1121C16.7416 11.8321 17.6216 5.64316 20.2159 5.64316C21.9737 5.64316 23.8419 18.186 19.3373 28.0553H19.3376ZM71.3237 22.5539C70.9073 19.4207 70.8855 5.45281 74.2387 5.83745C76.0902 6.58745 73.0648 19.7678 71.3237 22.5539ZM95.8091 22.5539C95.3927 19.4207 95.3709 5.45281 98.7241 5.83745C100.576 6.58745 97.5502 19.7678 95.8091 22.5539ZM120.1 22.7485C119.683 19.615 119.662 5.64709 123.015 6.03174C124.866 6.78174 121.841 19.9625 120.1 22.7485ZM146.917 5.01995C149.983 4.70209 149.857 18.09 143.703 26.5421C142.909 23.4871 141.693 6.06888 146.917 5.01959V5.01995ZM159.803 33.8278C158.818 28.8539 161.363 25.5871 163.986 25.2289C164.902 25.0824 166.231 25.6764 166.496 26.7867C166.932 28.8792 166.433 31.9832 160.562 35.9214C160.571 35.955 160.023 34.9357 159.803 33.8278H159.803Z" fill="black" fill-opacity="0.63"/>
</g>
<defs>
<clipPath id="clip0_74_277">
<rect width="182.869" height="45" fill="white" transform="translate(0 0.5)"/>
</clipPath>
</defs>
</svg>
