<svg width="167" height="46" viewBox="0 0 167 46" fill="none" xmlns="http://www.w3.org/2000/svg">
<g clip-path="url(#clip0_74_291)">
<path d="M32.824 19.7017H18.8837C18.7109 19.7019 18.5452 19.7707 18.423 19.8929C18.3008 20.0152 18.2321 20.1809 18.232 20.3537V27.1695C18.232 27.5291 18.524 27.8218 18.8834 27.8218H24.3219V36.2899C24.3219 36.2899 23.1008 36.7062 19.7248 36.7062C15.7418 36.7062 10.1777 35.2507 10.1777 23.0159C10.1777 10.7785 15.9717 9.16849 21.4108 9.16849C26.119 9.16849 28.1476 9.99727 29.438 10.3968C29.8437 10.5211 30.2189 10.1174 30.2189 9.75737L31.7738 3.17183C31.7738 3.00349 31.7168 2.80083 31.5248 2.66324C31.0007 2.28932 27.8031 0.5 19.7245 0.5C10.4185 0.5 0.87207 4.45935 0.87207 23.4931C0.87207 42.5274 11.8016 45.3637 21.012 45.3637C28.6377 45.3637 33.2637 42.1049 33.2637 42.1049C33.4547 41.9997 33.4751 41.7333 33.4751 41.6109V20.3537C33.4751 19.9944 33.1834 19.7017 32.824 19.7017ZM104.63 2.88241C104.63 2.51982 104.342 2.22716 103.983 2.22716H96.1332C96.0475 2.2275 95.9627 2.24472 95.8836 2.27783C95.8046 2.31094 95.7328 2.3593 95.6724 2.42015C95.6121 2.48099 95.5643 2.55313 95.5318 2.63245C95.4993 2.71176 95.4828 2.7967 95.4831 2.88241L95.4851 18.0516H83.2502V2.88273C83.2502 2.52014 82.9615 2.22748 82.6024 2.22748H74.753C74.5801 2.22842 74.4147 2.29798 74.2931 2.42085C74.1715 2.54373 74.1037 2.70986 74.1046 2.88273V43.9564C74.1046 44.319 74.3959 44.6136 74.753 44.6136H82.6021C82.9611 44.6136 83.2496 44.319 83.2496 43.9564V26.3876H95.4847L95.4634 43.9561C95.4634 44.3187 95.7547 44.6133 96.1134 44.6133H103.982C104.341 44.6133 104.628 44.3187 104.629 43.9561V2.88273L104.63 2.88241ZM47.6106 8.37403C47.6106 5.54777 45.3444 3.26345 42.5489 3.26345C39.756 3.26345 37.4882 5.54745 37.4882 8.37403C37.4882 11.1971 39.756 13.4875 42.5489 13.4875C45.3444 13.4875 47.6106 11.1971 47.6106 8.37403ZM46.9877 35.3132V16.3536C46.9882 16.1808 46.9201 16.0148 46.7983 15.8921C46.6766 15.7694 46.5111 15.7001 46.3383 15.6993H38.5138C38.1547 15.6993 37.8339 16.0697 37.8339 16.4297V43.5932C37.8339 44.3915 38.3312 44.6288 38.9751 44.6288H46.0246C46.7983 44.6288 46.9877 44.2491 46.9877 43.5802V35.3132ZM134.63 15.6996H126.84C126.483 15.6996 126.192 15.9939 126.192 16.3562V36.4961C126.192 36.4961 124.214 37.9439 121.405 37.9439C118.596 37.9439 117.851 36.6693 117.851 33.9195V16.3565C117.851 15.9939 117.561 15.6993 117.203 15.6993H109.298C108.941 15.6993 108.649 15.9939 108.649 16.3565V35.2494C108.649 43.4174 113.201 45.4158 119.464 45.4158C124.602 45.4158 128.744 42.5776 128.744 42.5776C128.744 42.5776 128.942 44.0733 129.031 44.2507C129.12 44.4278 129.353 44.6062 129.604 44.6062L134.633 44.5841C134.99 44.5841 135.282 44.2892 135.282 43.9286L135.28 16.3562C135.28 16.183 135.212 16.0166 135.09 15.8935C134.969 15.7704 134.803 15.7007 134.63 15.6996ZM152.576 37.9594C149.875 37.8772 148.042 36.6512 148.042 36.6512V23.6436C148.042 23.6436 149.85 22.5354 152.068 22.3373C154.873 22.0861 157.576 22.9333 157.576 29.6247C157.576 36.6806 156.356 38.0734 152.576 37.9594ZM155.648 14.8174C151.225 14.8174 148.215 16.7913 148.215 16.7913V2.88241C148.216 2.79685 148.2 2.71201 148.167 2.63275C148.135 2.55348 148.088 2.48136 148.028 2.42049C147.967 2.35963 147.896 2.31123 147.817 2.27805C147.738 2.24488 147.653 2.22758 147.568 2.22716H139.696C139.61 2.22754 139.526 2.2448 139.447 2.27794C139.368 2.31108 139.296 2.35947 139.236 2.42032C139.176 2.48118 139.128 2.55331 139.096 2.6326C139.063 2.71189 139.047 2.79677 139.047 2.88241V43.9561C139.047 44.3187 139.338 44.6133 139.697 44.6133H145.159C145.405 44.6133 145.591 44.487 145.728 44.2646C145.864 44.0438 146.06 42.3707 146.06 42.3707C146.06 42.3707 149.279 45.421 155.372 45.421C162.525 45.421 166.627 41.7925 166.627 29.132C166.627 16.4714 160.076 14.8174 155.648 14.8174ZM69.5793 15.6284H63.6914L63.6824 7.84989C63.6824 7.55561 63.5308 7.40831 63.1903 7.40831H55.1667C54.8546 7.40831 54.6872 7.54558 54.6872 7.84536V15.8839C54.6872 15.8839 50.6664 16.8544 50.3944 16.9328C50.2588 16.9721 50.1396 17.0545 50.0549 17.1674C49.9701 17.2803 49.9243 17.4177 49.9243 17.5589V22.6102C49.9243 22.9735 50.2144 23.2664 50.5734 23.2664H54.6872V35.4184C54.6872 44.4443 61.0183 45.331 65.2907 45.331C67.2429 45.331 69.578 44.7039 69.9636 44.5618C70.1967 44.476 70.332 44.2348 70.332 43.9726L70.3385 38.4159C70.3385 38.0536 70.0325 37.7603 69.6878 37.7603C69.3446 37.7603 68.4673 37.8999 67.5634 37.8999C64.6714 37.8999 63.6914 36.555 63.6914 34.8146L63.6911 23.2668H69.5793C69.6651 23.2664 69.75 23.2492 69.8291 23.216C69.9082 23.1828 69.9799 23.1343 70.0403 23.0733C70.1006 23.0123 70.1483 22.94 70.1806 22.8605C70.213 22.7811 70.2293 22.696 70.2287 22.6102V16.2833C70.2287 15.9208 69.9383 15.6284 69.5793 15.6284Z" fill="black" fill-opacity="0.63"/>
</g>
<defs>
<clipPath id="clip0_74_291">
<rect width="165.762" height="45" fill="white" transform="translate(0.868652 0.5)"/>
</clipPath>
</defs>
</svg>
