<svg width="160" height="160" viewBox="0 0 160 160" fill="none" xmlns="http://www.w3.org/2000/svg">
<path d="M39.8125 72.3875H21.3625V77.8624H34.45C33.8 85.5375 27.4125 88.8125 21.3875 88.8125C17.5087 88.8125 13.7888 87.2716 11.0461 84.5289C8.30337 81.7862 6.76253 78.0662 6.76253 74.1874C6.76253 70.3087 8.30337 66.5887 11.0461 63.846C13.7888 61.1033 17.5087 59.5625 21.3875 59.5625C25.064 59.5567 28.5994 60.9772 31.25 63.525L35.0875 59.5499C31.3809 55.9663 26.4052 53.9976 21.25 54.0749C18.6088 54.0938 15.9972 54.6327 13.5642 55.6609C11.1313 56.6891 8.92471 58.1864 7.07044 60.0674C5.21617 61.9484 3.75055 64.1762 2.75724 66.6235C1.76393 69.0709 1.2624 71.69 1.28128 74.3312C1.30015 76.9724 1.83907 79.584 2.86726 82.017C3.89545 84.4499 5.39277 86.6565 7.27374 88.5108C9.1547 90.365 11.3825 91.8307 13.8299 92.824C16.2772 93.8173 18.8963 94.3188 21.5375 94.3C32.3 94.3 40.1875 86.9249 40.1875 76.0125C40.2098 74.7953 40.0966 73.5795 39.85 72.3875H39.8125ZM54.925 68.425C52.373 68.4348 49.881 69.2 47.7632 70.624C45.6453 72.048 43.9965 74.0671 43.0244 76.4268C42.0524 78.7865 41.8006 81.3811 42.3009 83.8837C42.8012 86.3862 44.0312 88.6846 45.8358 90.4892C47.6403 92.2938 49.9388 93.5237 52.4413 94.0241C54.9438 94.5244 57.5385 94.2726 59.8982 93.3006C62.2578 92.3285 64.2769 90.6796 65.7009 88.5618C67.125 86.444 67.8901 83.952 67.9 81.4C67.927 79.6886 67.6099 77.9893 66.9674 76.4029C66.3249 74.8165 65.3702 73.3753 64.1599 72.1651C62.9496 70.9548 61.5085 70.0001 59.9221 69.3576C58.3357 68.7151 56.6364 68.3979 54.925 68.425ZM55 73.5C56.5731 73.4073 58.1377 73.7894 59.4909 74.5968C60.8442 75.4041 61.9236 76.5995 62.5892 78.0278C63.2548 79.4561 63.4758 81.0515 63.2237 82.607C62.9715 84.1624 62.2578 85.6063 61.1751 86.7512C60.0924 87.8961 58.6906 88.6892 57.1516 89.0278C55.6126 89.3663 54.0074 89.2346 52.5442 88.6497C51.081 88.0648 49.8273 87.0538 48.9457 85.7477C48.064 84.4416 47.5952 82.9007 47.6 81.3249C47.5476 80.3193 47.6999 79.3134 48.0477 78.3684C48.3955 77.4233 48.9317 76.5588 49.6236 75.8271C50.3155 75.0954 51.1489 74.5119 52.073 74.1119C52.9972 73.7118 53.993 73.5037 55 73.5ZM83.2 68.425C80.6474 68.4324 78.1542 69.1955 76.0347 70.618C73.9153 72.0405 72.2645 74.0587 71.2905 76.4182C70.3165 78.7777 70.063 81.3727 70.5619 83.8761C71.0608 86.3794 72.2898 88.679 74.0939 90.4848C75.8979 92.2907 78.1964 93.5219 80.6992 94.0232C83.2021 94.5245 85.7974 94.2735 88.1578 93.3018C90.5182 92.3301 92.538 90.6812 93.9626 88.5631C95.3872 86.445 96.1526 83.9525 96.1625 81.4C96.1895 79.6897 95.8727 77.9914 95.231 76.4058C94.5893 74.8203 93.6357 73.3797 92.4268 72.1696C91.2178 70.9595 89.7782 70.0045 88.1933 69.3613C86.6083 68.718 84.9103 68.3996 83.2 68.425ZM83.275 73.5C84.8481 73.4073 86.4127 73.7894 87.7659 74.5968C89.1192 75.4041 90.1986 76.5995 90.8642 78.0278C91.5298 79.4561 91.7508 81.0515 91.4987 82.607C91.2465 84.1624 90.5328 85.6063 89.4501 86.7512C88.3674 87.8961 86.9656 88.6892 85.4266 89.0278C83.8876 89.3663 82.2824 89.2346 80.8192 88.6497C79.356 88.0648 78.1023 87.0538 77.2207 85.7477C76.3391 84.4416 75.8702 82.9007 75.875 81.3249C75.8225 80.3193 75.9749 79.3134 76.3227 78.3684C76.6705 77.4233 77.2067 76.5588 77.8986 75.8271C78.5905 75.0954 79.4239 74.5119 80.348 74.1119C81.2722 73.7118 82.268 73.5037 83.275 73.5ZM110.913 68.4375C103.963 68.4375 98.5 74.525 98.5 81.35C98.4488 84.6851 99.7066 87.9076 102.004 90.3262C104.301 92.7447 107.454 94.1668 110.788 94.2874C112.133 94.3607 113.476 94.1147 114.708 93.5694C115.94 93.0241 117.025 92.195 117.875 91.1499V93.6499C117.875 98.1124 115.163 100.775 111.075 100.775C109.65 100.763 108.26 100.326 107.084 99.5201C105.908 98.714 105 97.5754 104.475 96.25L99.475 98.325C100.442 100.602 102.063 102.54 104.132 103.895C106.202 105.25 108.627 105.961 111.1 105.937C118.013 105.937 123.275 101.587 123.275 92.4625V69.2124H117.888V71.4C117.004 70.4366 115.924 69.6737 114.721 69.1627C113.518 68.6517 112.219 68.4044 110.913 68.4375ZM111.413 73.5C114.825 73.5 118.313 76.4124 118.313 81.3749C118.313 86.3374 114.825 89.2125 111.338 89.2125C110.351 89.1874 109.38 88.964 108.482 88.5557C107.584 88.1474 106.777 87.5624 106.11 86.8357C105.443 86.109 104.929 85.2555 104.599 84.3259C104.268 83.3963 104.128 82.4097 104.188 81.4249C104.188 76.4249 107.763 73.5 111.413 73.5ZM147.413 68.4C140.863 68.4 135.35 73.6125 135.35 81.3125C135.285 83.0094 135.567 84.7018 136.178 86.2862C136.789 87.8707 137.716 89.3141 138.904 90.5283C140.091 91.7424 141.513 92.702 143.084 93.3483C144.654 93.9946 146.34 94.3142 148.038 94.2874C150.167 94.2916 152.266 93.7771 154.152 92.7883C156.038 91.7996 157.655 90.3663 158.863 88.6124L154.388 85.6375C153.739 86.7375 152.812 87.6465 151.699 88.2722C150.585 88.8979 149.327 89.2179 148.05 89.2C146.724 89.2547 145.412 88.9114 144.282 88.2142C143.153 87.5169 142.258 86.4976 141.713 85.2875L159.05 78.0999L158.15 75.9874C157.324 73.7929 155.857 71.8974 153.94 70.5467C152.023 69.196 149.745 68.4524 147.4 68.4124L147.413 68.4ZM147.638 73.4C148.616 73.3578 149.585 73.5952 150.433 74.0845C151.281 74.5738 151.972 75.2946 152.425 76.1624L140.85 81C140.793 80.0544 140.923 79.1068 141.234 78.2118C141.544 77.3169 142.029 76.4924 142.66 75.7858C143.291 75.0792 144.056 74.5046 144.91 74.0951C145.765 73.6856 146.691 73.4494 147.638 73.4ZM127.088 93.5249H132.788V55.4125H127.088V93.5249Z" fill="black" fill-opacity="0.63"/>
</svg>
