<svg width="211" height="46" viewBox="0 0 211 46" fill="none" xmlns="http://www.w3.org/2000/svg">
<g clip-path="url(#clip0_74_284)">
<path d="M210.087 20.7292V17.0454H205.512V11.3189L205.358 11.366L201.062 12.6808L200.977 12.7065V17.0454H194.196V14.6285C194.196 13.503 194.447 12.6415 194.944 12.0675C195.436 11.4997 196.141 11.2113 197.039 11.2113C197.685 11.2113 198.354 11.3635 199.027 11.6634L199.196 11.7386V7.85964L199.116 7.831C198.488 7.60477 197.634 7.49146 196.576 7.49146C195.242 7.49146 194.029 7.7815 192.972 8.35709C191.93 8.91748 191.071 9.76624 190.499 10.8018C189.918 11.8466 189.623 13.053 189.623 14.3883V17.0458H186.438V20.7296H189.623V36.2477H194.196V20.7292H200.977V30.5908C200.977 34.6522 202.893 36.7108 206.671 36.7108C207.324 36.707 207.975 36.6346 208.613 36.4948C209.292 36.3487 209.754 36.2027 210.026 36.0468L210.087 36.0112V32.2934L209.901 32.4165C209.653 32.5822 209.344 32.7172 208.981 32.8175C208.617 32.9197 208.313 32.9713 208.078 32.9713C207.193 32.9713 206.538 32.7328 206.132 32.2619C205.721 31.7874 205.512 30.9565 205.512 29.7947V20.7292H210.087ZM176.227 32.9717C174.567 32.9717 173.259 32.421 172.337 31.3374C171.409 30.2475 170.939 28.6946 170.939 26.7208C170.939 24.6847 171.409 23.0913 172.337 21.9823C173.26 20.881 174.556 20.3218 176.19 20.3218C177.775 20.3218 179.037 20.8556 179.941 21.9099C180.85 22.969 181.311 24.5497 181.311 26.6095C181.311 28.6946 180.877 30.2966 180.022 31.368C179.173 32.4317 177.896 32.9717 176.227 32.9717ZM176.431 16.5827C173.264 16.5827 170.749 17.5105 168.957 19.3404C167.164 21.1706 166.256 23.7029 166.256 26.8685C166.256 29.8749 167.143 32.293 168.892 34.055C170.641 35.8173 173.022 36.71 175.967 36.71C179.037 36.71 181.501 35.7695 183.294 33.9142C185.086 32.061 185.994 29.5525 185.994 26.4606C185.994 23.4075 185.142 20.9714 183.461 19.2213C181.779 17.4704 179.413 16.5827 176.431 16.5827ZM158.883 16.5827C156.729 16.5827 154.948 17.1337 153.587 18.2199C152.218 19.3125 151.523 20.746 151.523 22.4801C151.523 23.3814 151.673 24.182 151.968 24.861C152.265 25.5426 152.724 26.1423 153.335 26.6459C153.94 27.1454 154.875 27.6686 156.114 28.2005C157.155 28.6292 157.932 28.992 158.425 29.2776C158.908 29.5578 159.25 29.8393 159.443 30.1134C159.631 30.3813 159.726 30.7487 159.726 31.2015C159.726 32.4918 158.76 33.1194 156.773 33.1194C156.035 33.1194 155.194 32.9655 154.273 32.662C153.358 32.3629 152.495 31.9251 151.713 31.364L151.523 31.2281V35.63L151.593 35.6627C152.24 35.9613 153.056 36.2129 154.017 36.4113C154.977 36.6093 155.848 36.7104 156.606 36.7104C158.943 36.7104 160.825 36.1569 162.198 35.0642C163.581 33.9637 164.281 32.4971 164.281 30.7025C164.281 29.4085 163.904 28.2982 163.16 27.4031C162.423 26.5154 161.141 25.7001 159.354 24.9797C157.931 24.4082 157.019 23.934 156.643 23.57C156.28 23.2181 156.096 22.7207 156.096 22.0911C156.096 21.5323 156.323 21.0851 156.79 20.7227C157.26 20.3586 157.915 20.1733 158.735 20.1733C159.498 20.1733 160.277 20.2935 161.052 20.5292C161.827 20.7652 162.507 21.0815 163.075 21.4676L163.262 21.5953V17.4193L163.19 17.3886C162.666 17.1636 161.975 16.9713 161.136 16.8159C160.3 16.6612 159.542 16.5827 158.883 16.5827ZM139.603 32.9717C137.943 32.9717 136.635 32.421 135.713 31.3374C134.785 30.2475 134.316 28.6946 134.316 26.7208C134.316 24.6847 134.785 23.0913 135.714 21.9823C136.636 20.881 137.931 20.3218 139.566 20.3218C141.151 20.3218 142.413 20.8556 143.317 21.9099C144.226 22.969 144.687 24.5497 144.687 26.6095C144.687 28.6946 144.253 30.2966 143.398 31.368C142.549 32.4317 141.273 32.9717 139.603 32.9717ZM139.807 16.5827C136.64 16.5827 134.125 17.5105 132.333 19.3404C130.541 21.1706 129.632 23.7029 129.632 26.8685C129.632 29.8761 130.519 32.293 132.268 34.055C134.017 35.8173 136.398 36.71 139.344 36.71C142.412 36.71 144.878 35.7695 146.671 33.9142C148.462 32.061 149.371 29.5525 149.371 26.4606C149.371 23.4075 148.518 20.9714 146.837 19.2213C145.154 17.4704 142.789 16.5827 139.807 16.5827ZM122.69 20.3709V17.0454H118.174V36.2469H122.69V26.4242C122.69 24.7539 123.069 23.3818 123.816 22.3455C124.554 21.3216 125.537 20.8025 126.737 20.8025C127.144 20.8025 127.601 20.8695 128.095 21.0025C128.585 21.1342 128.94 21.2774 129.149 21.428L129.339 21.5658V17.0126L129.265 16.9811C128.845 16.8024 128.25 16.7124 127.497 16.7124C126.362 16.7124 125.346 17.0769 124.476 17.7948C123.712 18.426 123.16 19.2917 122.738 20.3709H122.69ZM110.085 16.5827C108.013 16.5827 106.164 17.0274 104.592 17.9032C103.017 18.7807 101.799 20.0346 100.97 21.628C100.145 23.2181 99.7257 25.0754 99.7257 27.1466C99.7257 28.9605 100.132 30.6255 100.935 32.0925C101.738 33.5624 102.875 34.7124 104.315 35.5101C105.752 36.3066 107.413 36.7104 109.252 36.7104C111.399 36.7104 113.231 36.2812 114.701 35.4352L114.76 35.4009V31.2629L114.571 31.4016C113.895 31.8916 113.15 32.2792 112.361 32.552C111.562 32.8305 110.835 32.9713 110.197 32.9713C108.424 32.9713 107.002 32.417 105.969 31.3239C104.934 30.2287 104.409 28.6918 104.409 26.7572C104.409 24.8107 104.956 23.2341 106.035 22.0702C107.11 20.9105 108.535 20.3222 110.271 20.3222C111.756 20.3222 113.202 20.825 114.571 21.8178L114.76 21.9553V17.5952L114.699 17.5608C114.184 17.2724 113.482 17.0343 112.61 16.8539C111.742 16.6739 110.892 16.5827 110.085 16.5827ZM96.615 17.0454H92.0978V36.2469H96.615V17.0454ZM94.4026 8.86559C93.6593 8.86559 93.0109 9.11882 92.4783 9.61995C91.9432 10.1231 91.6715 10.7564 91.6715 11.5034C91.6715 12.239 91.9399 12.8604 92.4693 13.35C92.9958 13.8381 93.6462 14.0856 94.4026 14.0856C95.1586 14.0856 95.8115 13.8381 96.3442 13.3509C96.8801 12.8604 97.1521 12.239 97.1521 11.5034C97.1521 10.7826 96.8875 10.1555 96.3663 9.64041C95.8455 9.12618 95.1844 8.86559 94.4026 8.86559ZM83.133 15.6291V36.2465H87.7426V9.45345H81.3629L73.2535 29.3545L65.3842 9.45345H58.7446V36.2469H63.0765V15.627H63.2254L71.5353 36.2469H74.8039L82.9841 15.6287L83.133 15.6291Z" fill="black" fill-opacity="0.63"/>
<path d="M21.8801 21.7478H0.632324V0.5H21.8801V21.7478Z" fill="black" fill-opacity="0.63"/>
<path d="M45.3405 21.7478H24.0928V0.5H45.3405V21.7478Z" fill="black" fill-opacity="0.63"/>
<path d="M21.8797 45.2165H0.632324V23.9688H21.8797V45.2165Z" fill="black" fill-opacity="0.63"/>
<path d="M45.3405 45.2165H24.0928V23.9688H45.3405V45.2165Z" fill="black" fill-opacity="0.63"/>
</g>
<defs>
<clipPath id="clip0_74_284">
<rect width="209.457" height="45" fill="white" transform="translate(0.630859 0.5)"/>
</clipPath>
</defs>
</svg>
