<svg width="462" height="400" viewBox="0 0 462 400" fill="none" xmlns="http://www.w3.org/2000/svg">
<g clip-path="url(#clip0_74_206)">
<path d="M69.5104 141.15C107.9 141.15 139.021 110.029 139.021 71.6392C139.021 33.2497 107.9 2.12878 69.5104 2.12878C31.1209 2.12878 0 33.2497 0 71.6392C0 110.029 31.1209 141.15 69.5104 141.15Z" fill="#087990"/>
<path d="M69.5103 129.565C101.502 129.565 127.436 103.63 127.436 71.6392C127.436 39.6479 101.502 13.7139 69.5103 13.7139C37.519 13.7139 11.585 39.6479 11.585 71.6392C11.585 103.63 37.519 129.565 69.5103 129.565Z" fill="#404B69"/>
<path d="M69.5104 288.021C107.9 288.021 139.021 256.9 139.021 218.51C139.021 180.121 107.9 149 69.5104 149C31.1209 149 0 180.121 0 218.51C0 256.9 31.1209 288.021 69.5104 288.021Z" fill="#087990"/>
<path d="M69.5103 276.436C101.502 276.436 127.436 250.502 127.436 218.51C127.436 186.519 101.502 160.585 69.5103 160.585C37.519 160.585 11.585 186.519 11.585 218.51C11.585 250.502 37.519 276.436 69.5103 276.436Z" fill="white"/>
<path d="M69.5104 439.021C107.9 439.021 139.021 407.9 139.021 369.51C139.021 331.121 107.9 300 69.5104 300C31.1209 300 0 331.121 0 369.51C0 407.9 31.1209 439.021 69.5104 439.021Z" fill="#087990"/>
<path d="M69.5103 427.436C101.502 427.436 127.436 401.502 127.436 369.51C127.436 337.519 101.502 311.585 69.5103 311.585C37.519 311.585 11.585 337.519 11.585 369.51C11.585 401.502 37.519 427.436 69.5103 427.436Z" fill="white"/>
<path d="M64.5881 92.5864C64.4846 92.5864 64.3809 92.5839 64.2771 92.5788C63.361 92.5346 62.4653 92.2928 61.6514 91.87C60.8375 91.4471 60.1247 90.8532 59.5619 90.129L50.6764 78.7048C49.6418 77.3714 49.1783 75.6822 49.3876 74.0075C49.5969 72.3329 50.4618 70.8096 51.7927 69.7719L52.1124 69.5231C53.4458 68.4885 55.1352 68.0251 56.8099 68.2343C58.4846 68.4436 60.0079 69.3085 61.0458 70.6394C61.5466 71.2833 62.1806 71.8114 62.9044 72.1876C63.6282 72.5637 64.4248 72.779 65.2396 72.8188C66.0543 72.8585 66.8681 72.7217 67.625 72.4177C68.382 72.1138 69.0644 71.6498 69.6254 71.0577L87.6675 52.0125C88.2424 51.4056 88.9313 50.9178 89.6947 50.5772C90.4581 50.2365 91.2812 50.0495 92.1169 50.027C92.9526 50.0044 93.7845 50.1467 94.5653 50.4457C95.346 50.7446 96.0601 51.1945 96.667 51.7695L96.9615 52.0486C98.187 53.2097 98.9011 54.8101 98.9467 56.4977C98.9922 58.1853 98.3655 59.8218 97.2044 61.0474L69.2079 90.5985C68.6135 91.2266 67.8973 91.7268 67.1029 92.0686C66.3086 92.4104 65.4529 92.5866 64.5881 92.5864Z" fill="white"/>
<path d="M223.591 57.5644H177.839V17.7746C177.886 15.3109 178.908 12.9664 180.681 11.255C182.454 9.54363 184.834 8.60506 187.297 8.64503H202.505C214.132 8.64503 223.591 17.7756 223.591 28.9986V57.5644Z" fill="#2F2E41"/>
<path d="M240.53 390.524L231.845 390.523L227.712 357.022L240.531 357.023L240.53 390.524Z" fill="#FFB6B6"/>
<path d="M242.745 398.943L214.739 398.942V398.588C214.739 395.697 215.888 392.924 217.932 390.88C219.976 388.836 222.749 387.687 225.64 387.687L242.746 387.688L242.745 398.943Z" fill="#2F2E41"/>
<path d="M160.474 390.524L151.788 390.523L147.657 357.022L160.476 357.023L160.474 390.524Z" fill="#FFB6B6"/>
<path d="M162.689 398.943L134.684 398.942V398.588C134.684 395.697 135.832 392.924 137.877 390.88C139.921 388.836 142.693 387.687 145.584 387.687L162.69 387.688L162.689 398.943Z" fill="#2F2E41"/>
<path d="M170.962 121.382L165.294 157.513L219.136 158.221L212.052 123.508L170.962 121.382Z" fill="#FFB6B6"/>
<path d="M166.857 148.691L149.708 194.353L147.583 383.583H162.106L196.82 231.547L228.701 379.614H242.87L232.951 213.127C232.951 213.127 235.876 179.711 220.908 159.993L217.264 149.467L166.857 148.691Z" fill="#2F2E41"/>
<path d="M240.415 184.287C238.915 183.878 237.524 183.146 236.338 182.142C235.153 181.137 234.202 179.885 233.553 178.473C232.904 177.062 232.572 175.525 232.581 173.971C232.59 172.417 232.939 170.884 233.605 169.48L210.699 94.8027L227.547 91.463L248.496 164.662C250.781 165.937 252.519 168.005 253.381 170.475C254.242 172.945 254.168 175.645 253.172 178.064C252.176 180.483 250.327 182.453 247.976 183.6C245.624 184.746 242.934 184.991 240.415 184.287Z" fill="#FFB6B6"/>
<path d="M210.102 141.336L172.987 140.619C171.926 140.597 170.902 140.227 170.071 139.567C169.24 138.907 168.649 137.993 168.387 136.964C166.398 129.087 162.02 108.556 164.342 88.108C164.8 84.1468 166.048 80.3177 168.013 76.8472C169.977 73.3768 172.617 70.3356 175.777 67.9034C178.937 65.4713 182.553 63.6977 186.41 62.6875C190.268 61.6773 194.289 61.4511 198.236 62.0223C202.399 62.6183 206.389 64.0879 209.944 66.3345C213.5 68.5811 216.54 71.554 218.865 75.0582C221.191 78.5624 222.749 82.5187 223.438 86.6675C224.127 90.8163 223.931 95.0639 222.863 99.1317C218.191 116.874 215.552 129.566 215.019 136.858C214.94 137.913 214.519 138.912 213.818 139.704C213.118 140.496 212.178 141.037 211.141 141.245C210.833 141.306 210.519 141.337 210.205 141.337C210.17 141.337 210.136 141.337 210.102 141.336Z" fill="#087990"/>
<path d="M97.3617 75.7405C97.5846 76.2405 97.7678 76.7573 97.9095 77.2862L144.367 93.0728L153.344 85.2305L166.95 97.2314L152.407 112.659C151.233 113.905 149.685 114.737 147.997 115.029C146.31 115.321 144.573 115.058 143.047 114.279L93.335 88.8856C91.5372 89.9884 89.4464 90.5177 87.3405 90.4031C85.2346 90.2885 83.2135 89.5355 81.546 88.2443C79.8785 86.953 78.6436 85.1847 78.0056 83.1745C77.3676 81.1643 77.3568 79.0075 77.9745 76.991C78.5922 74.9744 79.8092 73.1938 81.4637 71.8858C83.1181 70.5778 85.1315 69.8045 87.2362 69.6688C89.3408 69.533 91.4369 70.0412 93.2456 71.1258C95.0544 72.2104 96.4901 73.82 97.3617 75.7405Z" fill="#FFB6B6"/>
<path d="M144.463 90.5552C144.467 89.9154 144.608 89.2839 144.878 88.7039C145.148 88.1238 145.54 87.6088 146.027 87.194L163.038 72.7041C165.19 70.2372 168.234 68.7248 171.5 68.4986C174.766 68.2723 177.989 69.3507 180.461 71.4973C182.933 73.6438 184.453 76.6832 184.687 79.9488C184.921 83.2144 183.851 86.4397 181.711 88.9172L169.597 107.781C169.251 108.319 168.793 108.776 168.255 109.122C167.716 109.467 167.11 109.693 166.476 109.783C165.843 109.872 165.198 109.825 164.584 109.643C163.971 109.461 163.404 109.149 162.922 108.728L145.986 93.9357C145.504 93.515 145.118 92.9952 144.856 92.4118C144.593 91.8284 144.459 91.1951 144.463 90.5552Z" fill="#087990"/>
<path d="M209.673 113.719C209.107 113.421 208.611 113.005 208.221 112.498C207.83 111.991 207.553 111.406 207.409 110.783L202.38 89.0105C201.182 85.9639 201.241 82.5666 202.545 79.5635C203.848 76.5605 206.289 74.1968 209.332 72.9909C212.376 71.7849 215.773 71.8351 218.78 73.1305C221.786 74.4258 224.156 76.8605 225.37 79.9008L236.537 99.3398C236.855 99.8946 237.051 100.512 237.109 101.149C237.168 101.786 237.089 102.428 236.877 103.032C236.665 103.635 236.326 104.186 235.882 104.647C235.438 105.108 234.899 105.467 234.304 105.701L213.375 113.923C212.779 114.158 212.14 114.261 211.502 114.225C210.863 114.19 210.239 114.017 209.673 113.719Z" fill="#087990"/>
<path d="M227.678 12.5332C229.396 8.51014 226.441 3.39138 221.077 1.10006C215.713 -1.19126 209.971 0.212534 208.253 4.23556C206.534 8.25858 209.49 13.3774 214.854 15.6687C220.218 17.96 225.959 16.5562 227.678 12.5332Z" fill="#2F2E41"/>
<path d="M211.037 42.4368C216.776 31.9395 212.918 18.7779 202.421 13.0396C191.923 7.30129 178.762 11.1592 173.023 21.6565C167.285 32.1537 171.143 45.3153 181.64 51.0536C192.138 56.7919 205.299 52.934 211.037 42.4368Z" fill="#FFB6B6"/>
<path d="M203.913 7.2373H179.136C177.32 7.21379 175.562 7.87789 174.214 9.09642C172.867 10.3149 172.03 11.9978 171.872 13.8075C171.807 14.7692 171.942 15.7338 172.266 16.6415C172.589 17.5493 173.096 18.3808 173.755 19.0847C174.413 19.7885 175.209 20.3496 176.094 20.7332C176.978 21.1168 177.931 21.3148 178.895 21.3148C180.762 21.3148 182.552 22.0564 183.872 23.3764C185.192 24.6964 185.934 26.4868 185.934 28.3536V57.2125H224.647V27.9711C224.647 25.2483 224.111 22.5522 223.069 20.0366C222.027 17.5211 220.5 15.2354 218.574 13.3101C216.649 11.3848 214.363 9.85753 211.848 8.81556C209.332 7.77359 206.636 7.2373 203.913 7.2373Z" fill="#2F2E41"/>
</g>
<defs>
<clipPath id="clip0_74_206">
<rect width="508.198" height="400" fill="white"/>
</clipPath>
</defs>
</svg>
