<svg width="100" height="100" viewBox="0 0 100 100" fill="none" xmlns="http://www.w3.org/2000/svg">
<g clip-path="url(#clip0_74_307)">
<path d="M37.9667 34.4251L24.875 65.6584H16.3333L9.89167 40.7293C9.5 39.1959 9.1625 38.6334 7.97083 37.9876C6.02917 36.9334 2.82083 35.9459 0 35.3293L0.191667 34.4251H13.9417C14.8402 34.4242 15.7095 34.7445 16.3925 35.3283C17.0756 35.912 17.5275 36.7207 17.6667 37.6084L21.0708 55.6834L29.4792 34.4251H37.9667ZM71.4375 55.4626C71.4708 47.2168 60.0375 46.7626 60.1167 43.0793C60.1417 41.9584 61.2083 40.7668 63.5417 40.4626C66.2762 40.2029 69.0301 40.6866 71.5125 41.8626L72.9292 35.2376C70.5124 34.329 67.9528 33.8592 65.3708 33.8501C57.3833 33.8501 51.7625 38.1001 51.7125 44.1793C51.6625 48.6751 55.725 51.1793 58.7875 52.6793C61.9375 54.2084 62.9958 55.1918 62.9792 56.5584C62.9583 58.6584 60.4708 59.5793 58.1458 59.6168C54.0833 59.6793 51.7292 58.5209 49.8458 57.6459L48.3833 64.4876C50.2708 65.3543 53.7542 66.1126 57.3667 66.1459C65.8542 66.1459 71.4083 61.9543 71.4375 55.4626ZM92.525 65.6584H100L93.4792 34.4251H86.5792C85.8419 34.4183 85.1196 34.6331 84.5059 35.0417C83.8923 35.4503 83.4155 36.0339 83.1375 36.7168L71.0167 65.6584H79.5L81.1875 60.9918H91.5542L92.525 65.6584ZM83.5125 54.5918L87.7625 42.8626L90.2125 54.5918H83.5125ZM49.5125 34.4251L42.8333 65.6584H34.75L41.4375 34.4251H49.5125Z" fill="black" fill-opacity="0.63"/>
</g>
<defs>
<clipPath id="clip0_74_307">
<rect width="100" height="100" fill="white"/>
</clipPath>
</defs>
</svg>
