<svg width="218" height="44" viewBox="0 0 218 44" fill="none" xmlns="http://www.w3.org/2000/svg">
<path d="M18.4459 0.158848C16.1817 0.800373 14.2572 2.98911 12.7855 6.61184L12.0873 8.30999L11.3515 8.29112C10.9364 8.27225 9.70994 8.19678 8.61559 8.12131C5.50233 7.89489 3.25701 8.4232 1.76642 9.72512C0.653193 10.7251 0.464511 11.2535 0.445642 13.4988C0.426774 15.4045 0.445642 15.5366 1.1249 16.9517C1.84189 18.4423 3.2004 20.499 3.89853 21.1216C4.42684 21.6122 4.40797 21.7254 3.59664 22.7066L2.89851 23.5557L3.46456 24.0085L4.01174 24.4425L4.69099 23.65L5.38912 22.8575L6.91745 24.216C7.74765 24.9519 8.89861 25.8953 9.44579 26.3104L10.4647 27.084L10.6911 28.8199C10.8232 29.7822 11.0685 31.2351 11.2571 32.0464C11.4458 32.8389 11.559 33.537 11.4836 33.5748C11.4081 33.6314 10.4835 33.7635 9.42692 33.8955C4.86081 34.4616 1.65321 32.9898 1.65321 30.3105C1.65321 29.7067 1.57774 29.6124 0.992821 29.4237C0.483379 29.2539 0.332433 29.2728 0.238092 29.4803C-0.120405 30.4237 0.464511 32.4427 1.38905 33.3861C3.18154 35.2352 5.61554 35.6503 11.5213 35.1408C12.0119 35.1031 12.0873 35.1975 12.6157 36.4994C13.861 39.6127 15.8421 42.1976 17.5969 43.0278C20.1818 44.2543 22.88 43.0656 25.0498 39.7636C25.5781 38.9711 26.2951 37.5749 26.6914 36.6503L27.3706 34.9899L28.2763 35.1031L29.1631 35.2352L29.2386 34.5559C29.314 33.8955 29.2952 33.8578 28.597 33.7635C27.7857 33.6314 27.748 33.5182 28.1631 32.0087C28.314 31.4426 28.5216 30.3294 28.6348 29.5558C28.748 28.7633 28.8801 27.8954 28.9367 27.6124C29.0121 27.2727 29.5405 26.7067 30.6725 25.801C31.5782 25.0651 32.6914 24.1028 33.1443 23.6311L33.9556 22.782L34.4839 23.367C35.3141 24.3481 36.5217 26.1972 37.0311 27.3293C38.0689 29.5558 37.9557 31.3483 36.7292 32.5747C36.05 33.254 35.9934 33.3861 36.1066 33.971C36.1632 34.3295 36.2764 34.6314 36.3519 34.6314C36.5783 34.6314 37.767 33.7068 38.1255 33.254C40.0312 30.8955 38.9746 26.5746 35.5028 22.4802L34.8613 21.7443L35.5783 20.9707C37.8236 18.5178 39.3708 15.0083 39.1444 12.8195C38.767 9.0836 34.6915 7.30997 28.7857 8.29112L27.314 8.51754L27.1065 7.89489C26.8423 7.08355 26.6914 7.00807 26.0121 7.36657C25.5027 7.61186 25.4649 7.7062 25.6159 8.14017C25.8989 8.87605 25.88 8.89491 24.6347 9.23454C23.9743 9.42323 22.5969 9.89494 21.5403 10.31L19.6346 11.0459L17.7667 10.31C16.7478 9.91381 15.3704 9.42323 14.7289 9.25341C13.8987 9.02699 13.5402 8.83831 13.5402 8.61189C13.5402 8.08357 14.7478 5.51747 15.5591 4.32876C17.0119 2.19663 18.3893 1.30982 20.0497 1.47963C20.8988 1.55511 21.0309 1.51737 21.4082 1.04566L21.8233 0.536213L21.3328 0.309795C20.578 -0.0298386 19.3705 -0.105312 18.4459 0.158848ZM11.2005 9.81946L11.5968 9.95154L11.2571 11.3667C11.0685 12.1591 10.8043 13.612 10.6722 14.5932L10.4269 16.3857L9.40805 17.1404C8.86087 17.5555 7.69104 18.5178 6.84197 19.2725L5.29478 20.6499L4.72873 19.9518C2.7287 17.4423 1.65321 15.1404 1.65321 13.3667C1.65321 12.1025 2.03057 11.3478 3.01172 10.6119C4.16268 9.74399 5.23817 9.53644 8.16275 9.61191C9.6156 9.64965 10.9741 9.74399 11.2005 9.81946ZM35.1066 9.89494C36.0689 10.1968 37.2387 11.2912 37.5217 12.1214C37.8047 12.9894 37.6538 14.4611 37.1444 15.763C36.7481 16.8196 35.4085 18.9518 34.4273 20.1027L33.899 20.7254L32.8235 19.6876C32.2386 19.1216 31.1065 18.1404 30.3141 17.4989L28.8801 16.3479L28.748 15.1592C28.597 13.895 27.9933 10.8006 27.7857 10.2534C27.6914 10.0081 27.8046 9.91381 28.3895 9.81946C28.7857 9.74399 29.2008 9.66852 29.2952 9.61191C29.7103 9.46096 34.4273 9.68739 35.1066 9.89494ZM15.7855 11.0648C16.6723 11.3667 17.4648 11.6874 17.5591 11.7818C17.6723 11.895 17.2195 12.2157 16.3516 12.6686C15.578 13.046 14.4081 13.7064 13.7289 14.1403C13.0496 14.5743 12.3892 15.0083 12.2383 15.0837C12.0307 15.2158 12.0119 15.0837 12.1062 14.4234C12.3138 13.0648 12.8232 10.5931 12.9175 10.4233C13.0308 10.2157 13.8232 10.4044 15.7855 11.0648ZM26.6347 11.8384C27.0687 13.9705 27.2763 15.197 27.2197 15.197C27.1819 15.197 26.4838 14.7819 25.6725 14.2913C24.8611 13.7818 23.5781 13.046 22.8234 12.6497C21.7667 12.1025 21.5026 11.895 21.729 11.7629C22.0875 11.5554 25.8234 10.31 26.1064 10.2912C26.2196 10.2912 26.4461 10.9893 26.6347 11.8384ZM25.6347 15.914C27.4272 17.0649 27.4461 17.1027 27.5782 17.9706C27.7291 19.0838 27.7291 24.6878 27.5782 25.6123C27.4649 26.2538 27.2951 26.4236 25.6913 27.4614C24.7291 28.0841 22.9743 29.103 21.8045 29.7256L19.6724 30.8389L17.8799 29.9332C16.0497 29.0086 13.0119 27.1973 12.2006 26.5369C11.7477 26.1784 11.7477 26.1406 11.6911 22.0651C11.6534 19.8197 11.6722 17.7631 11.7477 17.5178C11.8798 16.9517 14.2383 15.3856 17.4082 13.7441L19.6724 12.5742L21.7479 13.6497C22.88 14.2535 24.6347 15.2724 25.6347 15.914ZM10.1439 21.7066C10.1439 25.5934 10.3326 25.4614 7.89859 23.1783L6.29479 21.6877L8.18162 20.0461C9.2005 19.1404 10.0684 18.4046 10.1062 18.4046C10.125 18.4046 10.1439 19.8952 10.1439 21.7066ZM31.2763 20.2159L32.9556 21.7066L32.5405 22.1405C32.0877 22.65 29.2763 25.0085 29.1631 25.0085C29.1254 25.0085 29.0876 23.5179 29.0876 21.7254C29.0876 18.9518 29.1254 18.4423 29.3518 18.5744C29.4838 18.6499 30.3518 19.3857 31.2763 20.2159ZM26.9366 30.4992C26.4272 33.0087 26.3895 33.1219 26.0876 33.1219C25.6536 33.1219 21.6535 31.7634 21.6535 31.6313C21.6535 31.5559 22.3139 31.1407 23.1253 30.7068C23.9177 30.2728 25.1819 29.5558 25.8989 29.103C26.6347 28.6501 27.2385 28.3294 27.2763 28.4048C27.314 28.4803 27.1442 29.4237 26.9366 30.4992ZM13.6723 29.3294C14.5025 29.8388 15.7855 30.5558 16.5402 30.9521C17.295 31.3294 17.8799 31.6691 17.861 31.7068C17.7101 31.8389 13.1062 33.3106 13.0308 33.2351C12.9553 33.1597 12.0307 28.8954 12.0307 28.5935C12.0307 28.3105 12.0685 28.3294 13.6723 29.3294ZM23.5404 33.8955C24.7291 34.2918 25.7291 34.688 25.7668 34.7823C25.8611 35.0654 24.6724 37.6692 23.88 38.9145C20.8799 43.6505 17.2572 43.009 14.4836 37.2541C14.0685 36.3673 13.6911 35.4239 13.6723 35.1408C13.6345 34.6503 13.7289 34.5937 15.8044 33.8955C16.9931 33.4804 18.3516 32.9898 18.8233 32.7823C19.6724 32.4238 19.6724 32.4238 20.5214 32.7823C20.9931 32.9898 22.3517 33.4804 23.5404 33.8955Z" fill="#00818A"/>
<path d="M18.5401 18.2536C17.5589 18.6121 16.7099 19.3669 16.3325 20.2537C15.2947 22.5934 16.8419 25.1595 19.3891 25.3482C23.2383 25.6312 24.8232 20.499 21.4835 18.631C20.5967 18.1216 19.3137 17.9706 18.5401 18.2536ZM20.6345 20.0839C22.3137 21.1028 21.559 23.6877 19.5967 23.6877C17.6344 23.6877 16.8419 21.1028 18.5212 20.0839C18.842 19.8952 19.3137 19.7254 19.5778 19.7254C19.842 19.7254 20.3137 19.8952 20.6345 20.0839Z" fill="#404B69"/>
<path d="M23.1631 1.06454C21.3895 1.78154 20.748 4.14009 21.9744 5.57409C23.3707 7.23451 25.8424 7.04582 26.8047 5.19672C27.2387 4.36651 27.1632 2.83817 26.6349 2.12117C25.9179 1.12115 24.2952 0.630569 23.1631 1.06454ZM24.7481 2.57401C25.4273 2.89478 25.7669 3.80046 25.4084 4.42312C24.5782 5.91372 22.3141 4.91369 22.9556 3.34762C23.1631 2.85704 23.7103 2.42307 24.1443 2.38533C24.2197 2.36646 24.4839 2.4608 24.7481 2.57401Z" fill="#404B69"/>
<path d="M82.8882 10.1891C82.4165 10.2834 81.6806 10.4909 81.2466 10.6608L80.4353 10.9627V19.7931V28.6423L81.1523 28.831C82.3787 29.1707 85.6995 29.4537 86.7562 29.3216C88.0015 29.1707 89.7939 28.3404 90.5864 27.5291C91.8883 26.2461 92.4166 24.4913 92.2845 21.9818C92.0959 18.51 90.5487 16.4722 87.7184 16.0194C86.8505 15.8873 85.3033 16.0194 84.3788 16.3024C84.0391 16.4156 84.0203 16.2835 84.0203 13.208C84.0203 11.4344 83.9637 9.9815 83.8882 10.0004C83.7938 10.0192 83.3599 10.0947 82.8882 10.1891ZM87.6996 19.6421C88.5864 20.4723 88.926 22.0573 88.5486 23.6988C88.1147 25.6423 86.4543 26.7555 84.6807 26.2461L84.1146 26.0951L84.058 22.7743L84.0203 19.4534L84.5297 19.2647C84.8316 19.1515 85.5109 19.0572 86.058 19.0572C86.926 19.0383 87.1335 19.1138 87.6996 19.6421Z" fill="#404B69"/>
<path d="M101.247 11.8683C97.3981 12.6419 94.7754 16.2269 94.7754 20.7176C94.7943 24.3781 96.2471 27.1517 98.8132 28.4348C101.304 29.699 105.889 29.6612 108.398 28.3593L108.889 28.0952L108.417 26.6234L107.927 25.1517L106.87 25.5291C105.36 26.0385 103.002 26.1517 101.794 25.7555C99.8698 25.1139 98.7377 23.1894 98.7377 20.5478C98.7377 18.2459 99.5679 16.4722 101.059 15.6231C101.757 15.2269 102.077 15.1703 103.738 15.1892C105.228 15.1892 105.832 15.2835 106.606 15.6043L107.587 16.0005L107.983 14.925C108.7 13.0193 108.7 12.9061 107.794 12.5476C105.813 11.7551 103.209 11.491 101.247 11.8683Z" fill="#404B69"/>
<path d="M58.1707 18.1327C58.1707 24.963 58.1329 25.2272 56.8499 25.8876C56.0385 26.3027 54.5857 26.2084 53.3027 25.6423C52.8498 25.4348 52.397 25.2649 52.3215 25.2649C52.246 25.2649 52.0385 25.5857 51.8875 25.9631C51.7177 26.3593 51.4724 27.0008 51.3026 27.3782L51.0007 28.0763L51.8121 28.548C53.4347 29.4915 57.0952 29.6424 58.9254 28.8311C59.8688 28.416 60.8877 27.5103 61.3028 26.7555C61.9254 25.548 62.0198 23.9253 61.9632 15.4911L61.9443 12.0571H60.0575H58.1707V18.1327Z" fill="#404B69"/>
<path d="M69.171 16.1704C66.2276 17.227 64.8313 19.5101 65.0011 23.0763C65.0955 25.114 65.6238 26.4914 66.7747 27.6235C69.8314 30.6236 75.4164 29.5858 76.9258 25.7367C77.9825 23.0385 77.473 19.6611 75.7183 17.661C74.3975 16.1516 71.2276 15.4346 69.171 16.1704ZM72.8314 19.6988C73.5862 20.4913 73.9069 21.6234 73.7748 23.1329C73.6239 25.0763 72.6428 26.265 71.1899 26.265C69.737 26.265 68.7936 25.0763 68.6049 23.0385C68.3031 19.7365 70.9069 17.661 72.8314 19.6988Z" fill="#404B69"/>
<path d="M114.87 16.076C113.436 16.5666 112.511 17.1704 111.757 18.1138C110.776 19.378 110.36 20.7743 110.379 22.8121C110.398 25.6989 111.474 27.5669 113.794 28.699C114.927 29.2651 115.21 29.3217 116.662 29.3217C117.983 29.3028 118.455 29.2273 119.304 28.8311C121.7 27.699 122.889 25.6235 122.889 22.529C122.889 19.6422 121.644 17.51 119.323 16.4345C118.078 15.8685 116.021 15.6987 114.87 16.076ZM117.983 19.3969C118.795 19.9629 119.191 21.0384 119.21 22.6234C119.21 24.2083 118.795 25.2461 117.945 25.8876C117.285 26.3782 116.04 26.3782 115.379 25.8876C113.719 24.6989 113.511 20.963 115.021 19.5856C115.889 18.7931 117.002 18.7176 117.983 19.3969Z" fill="#404B69"/>
<path d="M129.115 16.0194C128.229 16.0949 127.153 16.2647 126.7 16.3779L125.908 16.6044V22.8121V29.0386H127.7H129.493V24.0385V19.0384H130.738C133.153 19.0384 133.266 19.3214 133.266 24.8876V29.0386H135.078H136.87L136.814 24.1706C136.757 19.4912 136.738 19.2837 136.304 18.3969C135.304 16.3779 133.115 15.6421 129.115 16.0194Z" fill="#404B69"/>
<path d="M145.059 16.0383C142.153 16.4723 140.38 18.227 139.851 21.2083C139.229 24.8121 140.663 28.0763 143.248 28.9443C144.248 29.2651 146.55 29.2651 147.569 28.9443L147.984 28.8122V31.1896V33.567H149.776H151.569V25.0763V16.6044L150.833 16.3968C150.21 16.227 146.587 15.793 146.286 15.8496C146.229 15.8685 145.682 15.944 145.059 16.0383ZM147.984 22.4158V25.7933L147.304 26.0197C146.927 26.1518 146.21 26.2084 145.701 26.1706C144.097 26.0008 143.455 25.0385 143.455 22.7743C143.474 20.1328 144.418 19.0384 146.72 19.0384H147.984V22.4158Z" fill="#404B69"/>
<path d="M173.04 16.2836C171.738 16.8119 171.04 17.3779 170.267 18.4723C169.304 19.8686 169.059 20.8686 169.154 23.0573C169.21 24.68 169.323 25.1517 169.757 26.0763C170.38 27.3782 171.644 28.4537 173.116 28.9631C174.474 29.4348 177.644 29.4348 179.191 28.982L180.305 28.6424L180.173 27.5669C179.946 25.6046 179.965 25.6423 178.965 25.9631C178.474 26.114 177.399 26.2461 176.569 26.2461C174.418 26.2649 173.229 25.6234 172.795 24.1706L172.682 23.7555H176.814H180.965L181.078 23.1894C181.229 22.3592 180.871 19.9063 180.456 18.944C179.305 16.3402 175.889 15.1137 173.04 16.2836ZM176.456 19.1327C176.984 19.3969 177.606 20.4157 177.606 21.0007C177.606 21.2648 177.267 21.3026 175.154 21.3026C173.814 21.3026 172.701 21.2648 172.701 21.2082C172.701 21.1705 172.833 20.7742 173.021 20.3403C173.55 19.0195 175.154 18.4534 176.456 19.1327Z" fill="#404B69"/>
<path d="M187.89 16.0194C187.267 16.0949 186.135 16.3025 185.399 16.4723L184.022 16.8119V22.9253V29.0386H185.814H187.607L187.645 24.0762L187.701 19.1327L189.079 19.0761C189.833 19.0384 190.739 19.095 191.098 19.2082L191.739 19.378L191.947 18.378C192.305 16.6232 192.286 16.3591 191.758 16.2081C190.928 15.9817 189.06 15.8874 187.89 16.0194Z" fill="#404B69"/>
<path d="M198.041 16.0949C195.569 16.9063 194.078 18.6799 193.663 21.3215C193.267 23.7932 194.173 26.6801 195.739 27.9254C197.041 28.9443 198.097 29.3028 199.871 29.3028C202.512 29.3028 204.305 28.2462 205.38 26.0574C205.984 24.8499 206.003 24.6989 206.003 22.6234C206.003 20.7743 205.946 20.3214 205.588 19.5478C204.89 18.0572 204.116 17.227 202.777 16.5666C201.343 15.8496 199.361 15.6609 198.041 16.0949ZM201.192 19.3969C202.097 20.0573 202.418 20.8875 202.418 22.529C202.418 24.9253 201.512 26.265 199.871 26.265C198.022 26.265 196.89 24.1706 197.305 21.4347C197.456 20.4913 198.475 19.1139 199.173 18.9818C199.833 18.8308 200.682 19.0195 201.192 19.3969Z" fill="#404B69"/>
<path d="M212.815 16.0383C212.098 16.1138 210.966 16.3213 210.305 16.51L209.117 16.8308V22.9253V29.0386H210.909H212.702L212.739 24.0762L212.796 19.1327L214.079 19.0761C214.777 19.0384 215.645 19.1139 216.022 19.2082C217.117 19.5101 217.23 19.378 217.23 17.7176V16.227L216.343 16.1138C214.57 15.9062 214.098 15.8874 212.815 16.0383Z" fill="#404B69"/>
<path d="M155.003 20.6799C155.116 25.5668 155.248 26.4159 156.21 27.6612C156.493 28.0575 157.154 28.5292 157.776 28.8311C158.72 29.265 159.041 29.3216 160.908 29.3028C162.72 29.265 164.72 29.0386 165.776 28.7367C166.078 28.6424 166.097 28.1707 166.097 22.4158V16.2081H164.305H162.512V21.2082V26.2084H161.267C158.871 26.2084 158.72 25.8687 158.588 20.3026L158.493 16.2081H156.701H154.927L155.003 20.6799Z" fill="#404B69"/>
<path d="M1.16255 24.8009C0.407819 25.1217 -0.0827548 25.9708 0.0115863 26.7633C0.124796 27.6312 0.539897 28.1407 1.3701 28.4048C3.23805 29.0275 4.69091 26.5557 3.27579 25.2161C2.78522 24.7443 1.74746 24.5557 1.16255 24.8009ZM2.50219 26.6123C2.50219 27.1029 2.42672 27.1784 1.91728 27.235C1.27576 27.2916 0.992734 26.9331 1.20028 26.2916C1.27576 26.0085 1.44557 25.9519 1.89841 25.9897C2.42672 26.0463 2.50219 26.1217 2.50219 26.6123Z" fill="#404B69"/>
<path d="M31.4269 32.6502C30.7288 33.0276 30.3325 33.8578 30.3325 34.8578C30.3325 36.1975 31.2759 37.0843 32.691 37.0843C34.7854 37.0843 35.8043 34.556 34.3326 33.0654C33.6345 32.3861 32.2571 32.1785 31.4269 32.6502ZM33.125 33.9899C33.7288 34.405 33.6911 35.3296 33.0684 35.6126C31.9363 36.122 31.0495 34.688 32.0684 33.9899C32.2948 33.8201 32.5401 33.688 32.5967 33.688C32.6533 33.688 32.8986 33.8201 33.125 33.9899Z" fill="#404B69"/>
</svg>
