<svg width="218" height="44" viewBox="0 0 218 44" fill="none" xmlns="http://www.w3.org/2000/svg">
<path d="M18.4456 0.158852C16.1815 0.800362 14.257 2.98904 12.7853 6.61168L12.0871 8.3098L11.3513 8.29093C10.9362 8.27206 9.70979 8.19659 8.61545 8.12112C5.50224 7.8947 3.25696 8.423 1.76639 9.72489C0.653184 10.7249 0.464505 11.2532 0.445637 13.4985C0.426769 15.4041 0.445637 15.5362 1.12488 16.9513C1.84186 18.4419 3.20035 20.4985 3.89847 21.1211C4.42677 21.6117 4.4079 21.7249 3.59658 22.706L2.89847 23.5551L3.46451 24.0079L4.01168 24.4419L4.69092 23.6494L5.38903 22.857L6.91734 24.2155C7.74752 24.9513 8.89847 25.8947 9.44564 26.3098L10.4645 27.0834L10.6909 28.8192C10.823 29.7815 11.0683 31.2343 11.257 32.0456C11.4456 32.8381 11.5588 33.5362 11.4834 33.5739C11.4079 33.6306 10.4834 33.7626 9.42677 33.8947C4.86073 34.4607 1.65318 32.989 1.65318 30.3098C1.65318 29.706 1.57771 29.6117 0.992807 29.423C0.483373 29.2532 0.33243 29.2721 0.23809 29.4796C-0.1204 30.423 0.464505 32.4419 1.38903 33.3853C3.18149 35.2343 5.61545 35.6494 11.5211 35.14C12.0117 35.1022 12.0871 35.1966 12.6154 36.4985C13.8607 39.6117 15.8419 42.1966 17.5966 43.0268C20.1815 44.2532 22.8796 43.0645 25.0494 39.7626C25.5777 38.9702 26.2947 37.5739 26.6909 36.6494L27.3702 34.989L28.2758 35.1022L29.1626 35.2343L29.2381 34.5551C29.3136 33.8947 29.2947 33.857 28.5966 33.7626C27.7853 33.6306 27.7475 33.5173 28.1626 32.0079C28.3136 31.4419 28.5211 30.3287 28.6343 29.5551C28.7475 28.7626 28.8796 27.8947 28.9362 27.6117C29.0117 27.2721 29.54 26.706 30.6721 25.8004C31.5777 25.0645 32.6909 24.1022 33.1437 23.6306L33.9551 22.7815L34.4834 23.3664C35.3136 24.3475 36.5211 26.1966 37.0305 27.3287C38.0683 29.5551 37.9551 31.3475 36.7287 32.5739C36.0494 33.2532 35.9928 33.3853 36.106 33.9702C36.1626 34.3287 36.2758 34.6306 36.3513 34.6306C36.5777 34.6306 37.7664 33.706 38.1249 33.2532C40.0305 30.8947 38.9739 26.5739 35.5022 22.4796L34.8607 21.7438L35.5777 20.9702C37.823 18.5173 39.3702 15.0079 39.1438 12.8192C38.7664 9.08338 34.6909 7.3098 28.7853 8.29093L27.3136 8.51734L27.106 7.8947C26.8419 7.08338 26.6909 7.00791 26.0117 7.3664C25.5022 7.61168 25.4645 7.70602 25.6154 8.13998C25.8985 8.87584 25.8796 8.8947 24.6343 9.23433C23.9739 9.423 22.5966 9.8947 21.54 10.3098L19.6343 11.0456L17.7664 10.3098C16.7475 9.91357 15.3702 9.423 14.7287 9.25319C13.8985 9.02678 13.54 8.8381 13.54 8.61168C13.54 8.08338 14.7475 5.51734 15.5588 4.32866C17.0117 2.19659 18.389 1.3098 20.0494 1.47961C20.8985 1.55508 21.0305 1.51734 21.4079 1.04565L21.823 0.536213L21.3324 0.309795C20.5777 -0.0298271 19.3702 -0.105297 18.4456 0.158852ZM11.2004 9.81923L11.5966 9.95131L11.257 11.3664C11.0683 12.1589 10.8041 13.6117 10.6721 14.5928L10.4268 16.3853L9.4079 17.14C8.86073 17.5551 7.69092 18.5173 6.84186 19.2721L5.29469 20.6494L4.72866 19.9513C2.72866 17.4419 1.65318 15.14 1.65318 13.3664C1.65318 12.1022 2.03054 11.3475 3.01168 10.6117C4.16262 9.74376 5.23809 9.53621 8.16262 9.61168C9.61545 9.64942 10.9739 9.74376 11.2004 9.81923ZM35.106 9.8947C36.0683 10.1966 37.2381 11.2909 37.5211 12.1211C37.8041 12.989 37.6532 14.4607 37.1437 15.7626C36.7475 16.8192 35.4079 18.9513 34.4268 20.1022L33.8985 20.7249L32.823 19.6872C32.2381 19.1211 31.106 18.14 30.3136 17.4985L28.8796 16.3475L28.7475 15.1589C28.5966 13.8947 27.9928 10.8004 27.7853 10.2532C27.6909 10.0079 27.8041 9.91357 28.389 9.81923C28.7853 9.74376 29.2004 9.66829 29.2947 9.61168C29.7098 9.46074 34.4268 9.68715 35.106 9.8947ZM15.7853 11.0645C16.6721 11.3664 17.4645 11.6872 17.5588 11.7815C17.6721 11.8947 17.2192 12.2155 16.3513 12.6683C15.5777 13.0456 14.4079 13.706 13.7287 14.14C13.0494 14.5739 12.389 15.0079 12.2381 15.0834C12.0305 15.2155 12.0117 15.0834 12.106 14.423C12.3136 13.0645 12.823 10.5928 12.9173 10.423C13.0305 10.2155 13.823 10.4041 15.7853 11.0645ZM26.6343 11.8381C27.0683 13.9702 27.2758 15.1966 27.2192 15.1966C27.1815 15.1966 26.4834 14.7815 25.6721 14.2909C24.8607 13.7815 23.5777 13.0456 22.823 12.6494C21.7664 12.1022 21.5022 11.8947 21.7287 11.7626C22.0871 11.5551 25.823 10.3098 26.106 10.2909C26.2192 10.2909 26.4456 10.989 26.6343 11.8381ZM25.6343 15.9136C27.4268 17.0645 27.4456 17.1022 27.5777 17.9702C27.7287 19.0834 27.7287 24.6872 27.5777 25.6117C27.4645 26.2532 27.2947 26.423 25.6909 27.4607C24.7287 28.0834 22.9739 29.1022 21.8041 29.7249L19.6721 30.8381L17.8796 29.9324C16.0494 29.0079 13.0117 27.1966 12.2004 26.5362C11.7475 26.1777 11.7475 26.14 11.6909 22.0645C11.6532 19.8192 11.6721 17.7626 11.7475 17.5173C11.8796 16.9513 14.2381 15.3853 17.4079 13.7438L19.6721 12.5739L21.7475 13.6494C22.8796 14.2532 24.6343 15.2721 25.6343 15.9136ZM10.1438 21.706C10.1438 25.5928 10.3324 25.4607 7.89847 23.1777L6.29469 21.6872L8.18149 20.0456C9.20035 19.14 10.0683 18.4041 10.106 18.4041C10.1249 18.4041 10.1438 19.8947 10.1438 21.706ZM31.2758 20.2155L32.9551 21.706L32.54 22.14C32.0871 22.6494 29.2758 25.0079 29.1626 25.0079C29.1249 25.0079 29.0871 23.5173 29.0871 21.7249C29.0871 18.9513 29.1249 18.4419 29.3513 18.5739C29.4834 18.6494 30.3513 19.3853 31.2758 20.2155ZM26.9362 30.4985C26.4268 33.0079 26.389 33.1211 26.0871 33.1211C25.6532 33.1211 21.6532 31.7626 21.6532 31.6306C21.6532 31.5551 22.3136 31.14 23.1249 30.706C23.9173 30.2721 25.1815 29.5551 25.8985 29.1022C26.6343 28.6494 27.2381 28.3287 27.2758 28.4041C27.3136 28.4796 27.1438 29.423 26.9362 30.4985ZM13.6721 29.3287C14.5022 29.8381 15.7853 30.5551 16.54 30.9513C17.2947 31.3287 17.8796 31.6683 17.8607 31.706C17.7098 31.8381 13.106 33.3098 13.0305 33.2343C12.9551 33.1589 12.0305 28.8947 12.0305 28.5928C12.0305 28.3098 12.0683 28.3287 13.6721 29.3287ZM23.54 33.8947C24.7287 34.2909 25.7287 34.6872 25.7664 34.7815C25.8607 35.0645 24.6721 37.6683 23.8796 38.9136C20.8796 43.6494 17.257 43.0079 14.4834 37.2532C14.0683 36.3664 13.6909 35.423 13.6721 35.14C13.6343 34.6494 13.7287 34.5928 15.8041 33.8947C16.9928 33.4796 18.3513 32.989 18.823 32.7815C19.6721 32.423 19.6721 32.423 20.5211 32.7815C20.9928 32.989 22.3513 33.4796 23.54 33.8947Z" fill="#40E9C0"/>
<path d="M18.5398 18.2532C17.5587 18.6117 16.7096 19.3664 16.3322 20.2532C15.2945 22.5928 16.8417 25.1589 19.3888 25.3475C23.2379 25.6306 24.8228 20.4985 21.4832 18.6306C20.5964 18.1211 19.3134 17.9702 18.5398 18.2532ZM20.6341 20.0834C22.3134 21.1023 21.5587 23.6872 19.5964 23.6872C17.6341 23.6872 16.8417 21.1023 18.5209 20.0834C18.8417 19.8947 19.3134 19.7249 19.5775 19.7249C19.8417 19.7249 20.3134 19.8947 20.6341 20.0834Z" fill="#DBEDF3"/>
<path d="M23.1626 1.0645C21.389 1.78148 20.7475 4.13997 21.9739 5.57393C23.3702 7.23431 25.8418 7.04563 26.8041 5.19658C27.2381 4.36639 27.1626 2.83808 26.6343 2.1211C25.9173 1.1211 24.2947 0.630537 23.1626 1.0645ZM24.7475 2.57393C25.4268 2.89469 25.7664 3.80035 25.4079 4.42299C24.5777 5.91356 22.3135 4.91356 22.9551 3.34752C23.1626 2.85695 23.7098 2.42299 24.1437 2.38525C24.2192 2.36639 24.4834 2.46073 24.7475 2.57393Z" fill="#DBEDF3"/>
<path d="M82.8869 10.1889C82.4152 10.2832 81.6794 10.4907 81.2454 10.6606L80.4341 10.9624V19.7926V28.6417L81.1511 28.8304C82.3775 29.17 85.6982 29.453 86.7548 29.3209C88.0001 29.17 89.7926 28.3398 90.585 27.5285C91.8869 26.2455 92.4152 24.4907 92.2831 21.9813C92.0945 18.5096 90.5473 16.4719 87.7171 16.019C86.8492 15.887 85.302 16.019 84.3775 16.3021C84.0379 16.4153 84.019 16.2832 84.019 13.2077C84.019 11.4341 83.9624 9.98131 83.8869 10.0002C83.7926 10.019 83.3586 10.0945 82.8869 10.1889ZM87.6982 19.6417C88.585 20.4719 88.9246 22.0568 88.5473 23.6983C88.1133 25.6417 86.4529 26.7549 84.6794 26.2455L84.1133 26.0945L84.0567 22.7738L84.019 19.453L84.5284 19.2643C84.8303 19.1511 85.5096 19.0568 86.0567 19.0568C86.9246 19.0379 87.1322 19.1134 87.6982 19.6417Z" fill="#DBEDF3"/>
<path d="M101.245 11.8681C97.3963 12.6417 94.7737 16.2266 94.7737 20.7172C94.7925 24.3775 96.2454 27.1511 98.8114 28.4341C101.302 29.6983 105.887 29.6605 108.396 28.3587L108.887 28.0945L108.415 26.6228L107.925 25.1511L106.868 25.5285C105.359 26.0379 103 26.1511 101.793 25.7549C99.868 25.1134 98.7359 23.1889 98.7359 20.5473C98.7359 18.2455 99.5661 16.4719 101.057 15.6228C101.755 15.2266 102.076 15.17 103.736 15.1889C105.227 15.1889 105.83 15.2832 106.604 15.6039L107.585 16.0002L107.981 14.9247C108.698 13.019 108.698 12.9058 107.793 12.5473C105.811 11.7549 103.208 11.4907 101.245 11.8681Z" fill="#DBEDF3"/>
<path d="M58.1698 18.1323C58.1698 24.9624 58.1321 25.2266 56.8491 25.887C56.0377 26.3021 54.5849 26.2077 53.3019 25.6417C52.8491 25.4341 52.3962 25.2643 52.3208 25.2643C52.2453 25.2643 52.0377 25.5851 51.8868 25.9624C51.717 26.3587 51.4717 27.0002 51.3019 27.3775L51 28.0757L51.8113 28.5474C53.434 29.4907 57.0943 29.6417 58.9245 28.8304C59.8679 28.4153 60.8868 27.5096 61.3019 26.7549C61.9245 25.5474 62.0189 23.9247 61.9623 15.4907L61.9434 12.0568H60.0566H58.1698V18.1323Z" fill="#DBEDF3"/>
<path d="M69.17 16.17C66.2266 17.2266 64.8303 19.5096 65.0001 23.0757C65.0945 25.1134 65.6228 26.4908 66.7737 27.6228C69.8303 30.6228 75.4152 29.5851 76.9247 25.7361C77.9813 23.0379 77.4718 19.6606 75.7171 17.6606C74.3964 16.1511 71.2266 15.4342 69.17 16.17ZM72.8303 19.6983C73.585 20.4908 73.9058 21.6228 73.7737 23.1323C73.6228 25.0757 72.6417 26.2644 71.1888 26.2644C69.736 26.2644 68.7926 25.0757 68.6039 23.0379C68.302 19.7361 70.9058 17.6606 72.8303 19.6983Z" fill="#DBEDF3"/>
<path d="M114.868 16.0757C113.434 16.5662 112.51 17.17 111.755 18.1134C110.774 19.3776 110.359 20.7738 110.378 22.8115C110.396 25.6983 111.472 27.5662 113.793 28.6983C114.925 29.2643 115.208 29.321 116.661 29.321C117.981 29.3021 118.453 29.2266 119.302 28.8304C121.698 27.6983 122.887 25.6228 122.887 22.5285C122.887 19.6417 121.642 17.5096 119.321 16.4342C118.076 15.8681 116.019 15.6983 114.868 16.0757ZM117.981 19.3964C118.793 19.9625 119.189 21.0379 119.208 22.6228C119.208 24.2077 118.793 25.2455 117.944 25.887C117.283 26.3776 116.038 26.3776 115.378 25.887C113.717 24.6983 113.51 20.9625 115.019 19.5851C115.887 18.7927 117 18.7172 117.981 19.3964Z" fill="#DBEDF3"/>
<path d="M129.113 16.0191C128.227 16.0945 127.151 16.2643 126.698 16.3776L125.906 16.604V22.8115V29.0379H127.698H129.491V24.0379V19.0379H130.736C133.151 19.0379 133.264 19.321 133.264 24.887V29.0379H135.076H136.868L136.811 24.17C136.755 19.4908 136.736 19.2832 136.302 18.3964C135.302 16.3776 133.113 15.6417 129.113 16.0191Z" fill="#DBEDF3"/>
<path d="M145.057 16.0379C142.151 16.4719 140.378 18.2266 139.849 21.2077C139.227 24.8115 140.661 28.0757 143.246 28.9436C144.246 29.2643 146.547 29.2643 147.566 28.9436L147.981 28.8115V31.1889V33.5662H149.774H151.566V25.0757V16.604L150.83 16.3964C150.208 16.2266 146.585 15.7926 146.283 15.8492C146.227 15.8681 145.679 15.9436 145.057 16.0379ZM147.981 22.4153V25.7926L147.302 26.0191C146.925 26.1511 146.208 26.2077 145.698 26.17C144.095 26.0002 143.453 25.0379 143.453 22.7738C143.472 20.1323 144.415 19.0379 146.717 19.0379H147.981V22.4153Z" fill="#DBEDF3"/>
<path d="M173.038 16.2832C171.736 16.8115 171.038 17.3775 170.264 18.4719C169.302 19.8681 169.057 20.8681 169.151 23.0568C169.208 24.6794 169.321 25.1511 169.755 26.0756C170.377 27.3775 171.642 28.453 173.113 28.9624C174.472 29.4341 177.642 29.4341 179.189 28.9813L180.302 28.6417L180.17 27.5662C179.944 25.6039 179.962 25.6417 178.962 25.9624C178.472 26.1134 177.396 26.2455 176.566 26.2455C174.415 26.2643 173.227 25.6228 172.793 24.17L172.679 23.7549H176.811H180.962L181.076 23.1889C181.227 22.3587 180.868 19.9058 180.453 18.9436C179.302 16.3398 175.887 15.1134 173.038 16.2832ZM176.453 19.1322C176.981 19.3964 177.604 20.4153 177.604 21.0002C177.604 21.2643 177.264 21.3021 175.151 21.3021C173.811 21.3021 172.698 21.2643 172.698 21.2077C172.698 21.17 172.83 20.7738 173.019 20.3398C173.547 19.019 175.151 18.453 176.453 19.1322Z" fill="#DBEDF3"/>
<path d="M187.887 16.0191C187.264 16.0945 186.132 16.3021 185.396 16.4719L184.019 16.8115V22.9247V29.0379H185.811H187.604L187.642 24.0757L187.698 19.1323L189.076 19.0757C189.83 19.0379 190.736 19.0945 191.095 19.2077L191.736 19.3776L191.944 18.3776C192.302 16.6228 192.283 16.3587 191.755 16.2077C190.925 15.9813 189.057 15.887 187.887 16.0191Z" fill="#DBEDF3"/>
<path d="M198.038 16.0945C195.566 16.9058 194.076 18.6794 193.66 21.3209C193.264 23.7926 194.17 26.6794 195.736 27.9247C197.038 28.9436 198.094 29.3021 199.868 29.3021C202.51 29.3021 204.302 28.2455 205.377 26.0568C205.981 24.8492 206 24.6983 206 22.6228C206 20.7738 205.943 20.3209 205.585 19.5473C204.887 18.0568 204.113 17.2266 202.774 16.5662C201.34 15.8492 199.359 15.6606 198.038 16.0945ZM201.189 19.3964C202.094 20.0568 202.415 20.887 202.415 22.5285C202.415 24.9247 201.51 26.2643 199.868 26.2643C198.019 26.2643 196.887 24.17 197.302 21.4341C197.453 20.4907 198.472 19.1134 199.17 18.9813C199.83 18.8304 200.679 19.019 201.189 19.3964Z" fill="#DBEDF3"/>
<path d="M212.811 16.0379C212.094 16.1134 210.962 16.321 210.302 16.5096L209.113 16.8304V22.9247V29.0379H210.906H212.698L212.736 24.0757L212.793 19.1323L214.076 19.0757C214.774 19.0379 215.642 19.1134 216.019 19.2077C217.113 19.5096 217.226 19.3776 217.226 17.7172V16.2266L216.34 16.1134C214.566 15.9059 214.094 15.887 212.811 16.0379Z" fill="#DBEDF3"/>
<path d="M155 20.6794C155.113 25.5662 155.245 26.4153 156.208 27.6606C156.491 28.0568 157.151 28.5285 157.774 28.8304C158.717 29.2643 159.038 29.3209 160.906 29.3021C162.717 29.2643 164.717 29.0379 165.774 28.736C166.076 28.6417 166.094 28.17 166.094 22.4153V16.2077H164.302H162.509V21.2077V26.2077H161.264C158.868 26.2077 158.717 25.8681 158.585 20.3021L158.491 16.2077H156.698H154.925L155 20.6794Z" fill="#DBEDF3"/>
<path d="M1.16253 24.8004C0.407813 25.1211 -0.0827535 25.9702 0.0115861 26.7626C0.124794 27.6306 0.539888 28.14 1.37008 28.4041C3.238 29.0268 4.69083 26.5551 3.27574 25.2155C2.78517 24.7438 1.74744 24.5551 1.16253 24.8004ZM2.50215 26.6117C2.50215 27.1023 2.42668 27.1777 1.91725 27.2343C1.27574 27.2909 0.992718 26.9324 1.20027 26.2909C1.27574 26.0079 1.44555 25.9513 1.89838 25.989C2.42668 26.0457 2.50215 26.1211 2.50215 26.6117Z" fill="#DBEDF3"/>
<path d="M31.4266 32.6494C30.7285 33.0268 30.3323 33.857 30.3323 34.857C30.3323 36.1966 31.2757 37.0834 32.6908 37.0834C34.7851 37.0834 35.804 34.5551 34.3323 33.0645C33.6342 32.3853 32.2568 32.1777 31.4266 32.6494ZM33.1247 33.989C33.7285 34.4041 33.6908 35.3287 33.0681 35.6117C31.936 36.1211 31.0493 34.6871 32.0681 33.989C32.2945 33.8192 32.5398 33.6871 32.5964 33.6871C32.653 33.6871 32.8983 33.8192 33.1247 33.989Z" fill="#DBEDF3"/>
</svg>
