<svg width="452" height="204" viewBox="0 0 452 204" fill="none" xmlns="http://www.w3.org/2000/svg">
<g clip-path="url(#clip0_250_126)">
<path d="M407.717 84.1563H142.526C141.4 84.1562 140.321 84.6216 139.524 85.45C138.728 86.2784 138.281 87.4019 138.281 88.5734C138.281 89.7449 138.728 90.8684 139.524 91.6968C140.321 92.5252 141.4 92.9906 142.526 92.9906H150.038V198.663C150.038 199.834 150.485 200.958 151.282 201.786C152.078 202.614 153.158 203.08 154.284 203.08C155.41 203.08 156.49 202.614 157.286 201.786C158.082 200.958 158.529 199.834 158.529 198.663L158.594 92.9906H371.436L391.061 198.663C391.061 199.834 391.508 200.958 392.305 201.786C393.101 202.614 394.181 203.08 395.307 203.08C396.433 203.08 397.513 202.614 398.309 201.786C399.105 200.958 399.552 199.834 399.552 198.663L400.788 92.9906H407.717C408.843 92.9906 409.923 92.5252 410.719 91.6968C411.516 90.8684 411.963 89.7449 411.963 88.5734C411.963 87.4019 411.516 86.2784 410.719 85.45C409.923 84.6216 408.843 84.1563 407.717 84.1563Z" fill="#CCCCCC"/>
<path d="M188.494 64.4739V83.1794H143.449C142.269 83.2221 141.092 83.0225 139.985 82.592C138.879 82.1614 137.865 81.5084 137.001 80.6701C136.137 79.8318 135.44 78.8248 134.951 77.7064C134.461 76.588 134.188 75.3802 134.147 74.152C134.106 72.9238 134.298 71.6992 134.711 70.5481C135.125 69.397 135.753 68.342 136.559 67.4434C137.364 66.5447 138.332 65.8199 139.407 65.3104C140.482 64.8009 141.643 64.5167 142.824 64.4739C143.032 64.4664 143.241 64.4664 143.449 64.4739L188.494 64.4739Z" fill="#F2F2F2"/>
<path d="M189.6 83.0353C189.6 83.226 189.527 83.409 189.398 83.5439C189.268 83.6788 189.092 83.7546 188.909 83.7547H142.647C140.135 83.7529 137.727 82.7136 135.952 80.8654C134.177 79.0172 133.18 76.5112 133.18 73.8983C133.18 71.2855 134.177 68.7795 135.952 66.9313C137.727 65.0831 140.135 64.0438 142.647 64.042H188.909C189 64.0418 189.09 64.0602 189.174 64.0962C189.258 64.1323 189.334 64.1852 189.399 64.2521C189.463 64.3189 189.514 64.3983 189.549 64.4857C189.584 64.5731 189.602 64.6668 189.602 64.7614C189.602 64.8561 189.584 64.9498 189.549 65.0372C189.514 65.1246 189.463 65.204 189.399 65.2708C189.334 65.3377 189.258 65.3906 189.174 65.4267C189.09 65.4627 189 65.4811 188.909 65.4809H142.647C140.503 65.4842 138.448 66.3726 136.934 67.9508C135.419 69.529 134.568 71.6681 134.568 73.8983C134.568 76.1286 135.419 78.2677 136.934 79.8459C138.448 81.4241 140.503 82.3124 142.647 82.3158H188.909C189.092 82.3159 189.268 82.3917 189.398 82.5266C189.527 82.6615 189.6 82.8445 189.6 83.0353Z" fill="#404B69"/>
<path d="M188.494 68.7902H140.088C140.052 68.7904 140.017 68.7755 139.99 68.7488C139.964 68.7221 139.95 68.6857 139.949 68.6476C139.949 68.6096 139.963 68.5729 139.989 68.5457C140.014 68.5185 140.049 68.5029 140.086 68.5024H188.494C188.53 68.5028 188.565 68.5181 188.591 68.5451C188.616 68.572 188.631 68.6084 188.631 68.6463C188.631 68.6842 188.616 68.7206 188.591 68.7476C188.565 68.7745 188.53 68.7898 188.494 68.7902Z" fill="#CCCCCC"/>
<path d="M188.494 72.2438H140.088C140.052 72.244 140.017 72.2291 139.99 72.2024C139.964 72.1757 139.95 72.1393 139.949 72.1013C139.949 72.0632 139.963 72.0265 139.989 71.9993C140.014 71.9721 140.049 71.9566 140.086 71.9561H188.494C188.53 71.9564 188.565 71.9718 188.591 71.9987C188.616 72.0256 188.631 72.062 188.631 72.0999C188.631 72.1379 188.616 72.1742 188.591 72.2012C188.565 72.2281 188.53 72.2434 188.494 72.2438Z" fill="#CCCCCC"/>
<path d="M188.494 75.697H140.088C140.052 75.6972 140.017 75.6823 139.99 75.6555C139.964 75.6288 139.95 75.5925 139.949 75.5544C139.949 75.5163 139.963 75.4797 139.989 75.4525C140.014 75.4252 140.049 75.4097 140.086 75.4092H188.494C188.53 75.4096 188.565 75.4249 188.591 75.4518C188.616 75.4788 188.631 75.5152 188.631 75.5531C188.631 75.591 188.616 75.6274 188.591 75.6543C188.565 75.6812 188.53 75.6966 188.494 75.697Z" fill="#CCCCCC"/>
<path d="M188.494 79.1506H140.088C140.052 79.1508 140.017 79.1359 139.99 79.1092C139.964 79.0824 139.95 79.0461 139.949 79.008C139.949 78.9699 139.963 78.9333 139.989 78.9061C140.014 78.8789 140.049 78.8633 140.086 78.8628H188.494C188.53 78.8632 188.565 78.8785 188.591 78.9054C188.616 78.9324 188.631 78.9688 188.631 79.0067C188.631 79.0446 188.616 79.081 188.591 79.1079C188.565 79.1349 188.53 79.1502 188.494 79.1506Z" fill="#CCCCCC"/>
<path d="M180.002 44.7664V63.4719H134.958C132.574 63.5582 130.254 62.6556 128.509 60.9626C126.765 59.2696 125.738 56.925 125.655 54.4445C125.572 51.964 126.44 49.5508 128.067 47.7358C129.694 45.9208 131.948 44.8527 134.332 44.7664C134.541 44.7589 134.749 44.7589 134.958 44.7664H180.002Z" fill="#F2F2F2"/>
<path d="M181.109 63.3282C181.109 63.519 181.036 63.7019 180.906 63.8368C180.777 63.9717 180.601 64.0476 180.417 64.0476H134.156C131.643 64.0476 129.233 63.0092 127.457 61.1608C125.68 59.3124 124.682 56.8054 124.682 54.1913C124.682 51.5772 125.68 49.0702 127.457 47.2218C129.233 45.3734 131.643 44.335 134.156 44.335H180.417C180.508 44.335 180.598 44.3536 180.682 44.3897C180.766 44.4259 180.842 44.4789 180.906 44.5457C180.971 44.6125 181.022 44.6918 181.056 44.7791C181.091 44.8664 181.109 44.9599 181.109 45.0544C181.109 45.1489 181.091 45.2424 181.056 45.3297C181.022 45.417 180.971 45.4963 180.906 45.5631C180.842 45.6299 180.766 45.6829 180.682 45.7191C180.598 45.7552 180.508 45.7738 180.417 45.7738H134.156C132.01 45.7738 129.952 46.6607 128.435 48.2393C126.917 49.8178 126.065 51.9589 126.065 54.1913C126.065 56.4238 126.917 58.5648 128.435 60.1433C129.952 61.7219 132.01 62.6088 134.156 62.6088H180.417C180.601 62.6088 180.777 62.6847 180.906 62.8196C181.036 62.9545 181.109 63.1374 181.109 63.3282Z" fill="#3F3D56"/>
<path d="M180.002 49.0832H131.597C131.56 49.0834 131.525 49.0685 131.499 49.0418C131.473 49.0151 131.458 48.9787 131.458 48.9406C131.457 48.9026 131.472 48.8659 131.497 48.8387C131.523 48.8115 131.558 48.7959 131.594 48.7954H180.002C180.039 48.7958 180.074 48.8111 180.099 48.8381C180.125 48.865 180.139 48.9014 180.139 48.9393C180.139 48.9772 180.125 49.0136 180.099 49.0405C180.074 49.0675 180.039 49.0828 180.002 49.0832Z" fill="#CCCCCC"/>
<path d="M180.002 52.5363H131.597C131.56 52.5365 131.525 52.5216 131.499 52.4949C131.473 52.4682 131.458 52.4318 131.458 52.3938C131.457 52.3557 131.472 52.319 131.497 52.2918C131.523 52.2646 131.558 52.249 131.594 52.2485H180.002C180.039 52.2489 180.074 52.2643 180.099 52.2912C180.125 52.3181 180.139 52.3545 180.139 52.3924C180.139 52.4303 180.125 52.4667 180.099 52.4937C180.074 52.5206 180.039 52.5359 180.002 52.5363Z" fill="#CCCCCC"/>
<path d="M180.002 55.9899H131.597C131.56 55.9901 131.525 55.9752 131.499 55.9485C131.473 55.9218 131.458 55.8854 131.458 55.8474C131.457 55.8093 131.472 55.7726 131.497 55.7454C131.523 55.7182 131.558 55.7026 131.594 55.7021H180.002C180.039 55.7025 180.074 55.7178 180.099 55.7448C180.125 55.7717 180.139 55.8081 180.139 55.846C180.139 55.8839 180.125 55.9203 180.099 55.9473C180.074 55.9742 180.039 55.9895 180.002 55.9899Z" fill="#CCCCCC"/>
<path d="M180.002 59.443H131.597C131.56 59.4432 131.525 59.4284 131.499 59.4016C131.473 59.3749 131.458 59.3385 131.458 59.3005C131.457 59.2624 131.472 59.2258 131.497 59.1985C131.523 59.1713 131.558 59.1558 131.594 59.1553H180.002C180.039 59.1557 180.074 59.171 180.099 59.1979C180.125 59.2249 180.139 59.2612 180.139 59.2992C180.139 59.3371 180.125 59.3734 180.099 59.4004C180.074 59.4273 180.039 59.4427 180.002 59.443Z" fill="#CCCCCC"/>
<path d="M232.403 150.347V134.037C232.403 133.316 232.128 132.625 231.638 132.115C231.148 131.605 230.483 131.319 229.791 131.319H170.351C169.658 131.319 168.994 131.605 168.504 132.115C168.014 132.625 167.739 133.316 167.739 134.037V150.347H232.403Z" fill="#CCCCCC"/>
<path d="M232.403 156.463H167.739V177.529H232.403V156.463Z" fill="#CCCCCC"/>
<path d="M167.739 183.645V199.955C167.739 200.676 168.014 201.367 168.504 201.877C168.994 202.387 169.658 202.673 170.351 202.673H229.791C230.483 202.673 231.148 202.387 231.638 201.877C232.128 201.367 232.403 200.676 232.403 199.955V183.645H167.739Z" fill="#CCCCCC"/>
<path d="M199.744 143.551C200.826 143.551 201.704 142.638 201.704 141.512C201.704 140.386 200.826 139.474 199.744 139.474C198.662 139.474 197.785 140.386 197.785 141.512C197.785 142.638 198.662 143.551 199.744 143.551Z" fill="white"/>
<path d="M199.744 170.734C200.826 170.734 201.704 169.821 201.704 168.695C201.704 167.569 200.826 166.656 199.744 166.656C198.662 166.656 197.785 167.569 197.785 168.695C197.785 169.821 198.662 170.734 199.744 170.734Z" fill="white"/>
<path d="M199.849 197.341C200.931 197.341 201.809 196.428 201.809 195.302C201.809 194.176 200.931 193.263 199.849 193.263C198.767 193.263 197.89 194.176 197.89 195.302C197.89 196.428 198.767 197.341 199.849 197.341Z" fill="white"/>
<path d="M225.072 112.723V131.428H180.027C177.644 131.513 175.326 130.609 173.583 128.917C171.84 127.224 170.814 124.88 170.731 122.401C170.648 119.922 171.515 117.509 173.14 115.695C174.766 113.88 177.018 112.811 179.401 112.723C179.61 112.715 179.819 112.715 180.027 112.723H225.072Z" fill="#F2F2F2"/>
<path d="M226.178 131.284C226.178 131.475 226.105 131.658 225.976 131.793C225.846 131.928 225.67 132.004 225.487 132.004H179.225C176.713 132.004 174.303 130.967 172.526 129.12C170.749 127.273 169.75 124.767 169.749 122.153C169.747 119.54 170.743 117.033 172.518 115.183C174.293 113.334 176.701 112.294 179.213 112.291H225.487C225.578 112.291 225.668 112.309 225.752 112.345C225.836 112.381 225.912 112.434 225.977 112.501C226.041 112.568 226.092 112.647 226.127 112.735C226.162 112.822 226.18 112.916 226.18 113.01C226.18 113.105 226.162 113.199 226.127 113.286C226.092 113.374 226.041 113.453 225.977 113.52C225.912 113.587 225.836 113.64 225.752 113.676C225.668 113.712 225.578 113.73 225.487 113.73H179.225C177.081 113.733 175.026 114.621 173.511 116.199C171.996 117.777 171.145 119.917 171.145 122.147C171.145 124.378 171.996 126.517 173.511 128.096C175.026 129.674 177.081 130.562 179.225 130.565H225.487C225.67 130.565 225.846 130.641 225.976 130.776C226.105 130.911 226.178 131.093 226.178 131.284Z" fill="#3F3D56"/>
<path d="M225.072 117.039H176.666C176.63 117.04 176.595 117.025 176.569 116.998C176.543 116.971 176.528 116.935 176.527 116.897C176.527 116.859 176.541 116.822 176.567 116.795C176.592 116.768 176.627 116.752 176.664 116.752H225.072C225.108 116.752 225.143 116.767 225.169 116.794C225.195 116.821 225.209 116.858 225.209 116.896C225.209 116.934 225.195 116.97 225.169 116.997C225.143 117.024 225.108 117.039 225.072 117.039Z" fill="#CCCCCC"/>
<path d="M225.072 120.493H176.666C176.63 120.493 176.595 120.478 176.569 120.451C176.543 120.425 176.528 120.388 176.527 120.35C176.527 120.312 176.541 120.276 176.567 120.248C176.592 120.221 176.627 120.206 176.664 120.205H225.072C225.108 120.205 225.143 120.221 225.169 120.248C225.195 120.275 225.209 120.311 225.209 120.349C225.209 120.387 225.195 120.423 225.169 120.45C225.143 120.477 225.108 120.492 225.072 120.493Z" fill="#CCCCCC"/>
<path d="M225.072 123.946H176.666C176.63 123.946 176.595 123.931 176.569 123.905C176.543 123.878 176.528 123.841 176.527 123.803C176.527 123.765 176.541 123.729 176.567 123.701C176.592 123.674 176.627 123.659 176.664 123.658H225.072C225.108 123.659 225.143 123.674 225.169 123.701C225.195 123.728 225.209 123.764 225.209 123.802C225.209 123.84 225.195 123.876 225.169 123.903C225.143 123.93 225.108 123.946 225.072 123.946Z" fill="#CCCCCC"/>
<path d="M225.072 127.399H176.666C176.63 127.4 176.595 127.385 176.569 127.358C176.543 127.331 176.528 127.295 176.527 127.257C176.527 127.219 176.541 127.182 176.567 127.155C176.592 127.128 176.627 127.112 176.664 127.112H225.072C225.108 127.112 225.143 127.127 225.169 127.154C225.195 127.181 225.209 127.218 225.209 127.255C225.209 127.293 225.195 127.33 225.169 127.357C225.143 127.384 225.108 127.399 225.072 127.399Z" fill="#CCCCCC"/>
<path d="M172.169 38.5263H151.646C151.452 38.5261 151.26 38.5726 151.085 38.6622L145.905 41.36C145.735 41.4354 145.589 41.5613 145.487 41.722C145.385 41.8827 145.33 42.0712 145.33 42.2639C145.33 42.4566 145.385 42.645 145.487 42.8057C145.589 42.9664 145.735 43.0923 145.905 43.1677L151.085 45.8655C151.26 45.9551 151.452 46.0016 151.646 46.0014H172.169C172.452 46.0185 172.73 45.9189 172.943 45.7243C173.156 45.5297 173.286 45.2557 173.306 44.9617V39.566C173.286 39.272 173.156 38.998 172.943 38.8034C172.73 38.6088 172.452 38.5093 172.169 38.5263Z" fill="#3F3D56"/>
<path d="M173.306 39.566V44.9617C173.286 45.2557 173.156 45.5297 172.943 45.7243C172.73 45.9189 172.452 46.0185 172.169 46.0015H168.081V38.5263H172.169C172.452 38.5093 172.73 38.6088 172.943 38.8035C173.156 38.9981 173.286 39.272 173.306 39.566Z" fill="#404B69"/>
<path d="M49.1285 144.253C51.7711 145.219 54.6084 145.461 57.3671 144.956C60.1257 144.45 62.7127 143.214 64.8789 141.366C70.3955 136.549 72.1251 128.613 73.5325 121.264C74.92 114.019 76.3076 106.773 77.6951 99.5278L68.9802 105.771C62.713 110.261 56.3045 114.894 51.9651 121.397C47.6257 127.9 45.7316 136.778 49.2181 143.814" fill="#E6E6E6"/>
<path d="M49.8735 170.569C48.9914 163.885 48.0845 157.114 48.7032 150.358C49.2527 144.358 51.0121 138.497 54.5943 133.692C56.4957 131.146 58.8093 128.965 61.4311 127.247C62.1148 126.798 62.7441 127.925 62.0634 128.372C57.5268 131.355 54.018 135.759 52.0427 140.951C49.8611 146.724 49.5107 153.017 49.8867 159.15C50.114 162.859 50.5959 166.543 51.0814 170.223C51.1197 170.389 51.0958 170.564 51.0146 170.713C50.9334 170.862 50.8009 170.973 50.644 171.024C50.4838 171.069 50.3131 171.046 50.1689 170.961C50.0247 170.876 49.9185 170.735 49.8735 170.569Z" fill="#F2F2F2"/>
<path d="M58.3691 158.741C59.5025 160.533 61.0604 161.991 62.8927 162.975C64.725 163.959 66.77 164.435 68.8307 164.358C74.1265 164.097 78.5415 160.251 82.5158 156.601L94.2712 145.802L86.4911 145.415C80.8961 145.136 75.1568 144.876 69.8278 146.672C64.4988 148.467 59.5841 152.787 58.6096 158.525" fill="#E6E6E6"/>
<path d="M47.3806 174.412C51.6261 166.596 56.5505 157.91 65.3496 155.134C67.7962 154.365 70.3616 154.089 72.9076 154.322C73.7101 154.394 73.5097 155.681 72.7087 155.609C68.4409 155.24 64.1814 156.413 60.6472 158.929C57.2464 161.337 54.5984 164.686 52.3572 168.236C50.9844 170.411 49.7547 172.678 48.5248 174.943C48.1318 175.666 46.9829 175.144 47.3806 174.412Z" fill="#F2F2F2"/>
<path d="M40.578 182.638C40.7211 180.914 41.3162 179.263 42.2985 177.866C43.2809 176.469 44.6128 175.38 46.1493 174.716V170.198H53.4333V174.858C54.8941 175.555 56.1514 176.642 57.0768 178.008C58.0022 179.375 58.5627 180.973 58.7012 182.638L60.414 203.353H38.8652L40.578 182.638Z" fill="#F2F2F2"/>
<path d="M288.296 83.7316L286.129 82.7824L284.642 71.481H264.847L263.236 82.7362L261.297 83.7446C261.205 83.7929 261.13 83.8723 261.086 83.97C261.042 84.0678 261.031 84.1781 261.055 84.2831C261.079 84.3881 261.136 84.4816 261.218 84.5486C261.299 84.6155 261.4 84.652 261.503 84.652H288.117C288.223 84.652 288.326 84.6137 288.409 84.5437C288.491 84.4737 288.547 84.3762 288.568 84.2678C288.589 84.1594 288.574 84.0468 288.524 83.9491C288.474 83.8513 288.394 83.7745 288.296 83.7316Z" fill="#E6E6E6"/>
<path d="M323.473 72.9845H226.234C225.724 72.9833 225.235 72.7716 224.874 72.3959C224.514 72.0201 224.312 71.511 224.312 70.9802V56.7144H325.395V70.9802C325.395 71.511 325.193 72.0201 324.832 72.3959C324.472 72.7716 323.983 72.9833 323.473 72.9845Z" fill="#CCCCCC"/>
<path d="M325.497 63.4566H224.223V2.41613C224.224 1.77555 224.469 1.16141 224.904 0.708458C225.34 0.255504 225.93 0.000716774 226.546 0H323.174C323.79 0.000716762 324.38 0.255505 324.816 0.708458C325.251 1.16141 325.496 1.77555 325.497 2.41613L325.497 63.4566Z" fill="#3F3D56"/>
<path d="M319.852 58.5985H230.676C230.201 58.598 229.746 58.4015 229.41 58.0523C229.075 57.7031 228.886 57.2297 228.885 56.7358V5.86523C228.886 5.37137 229.075 4.89788 229.41 4.54866C229.746 4.19944 230.201 4.00301 230.676 4.00244H319.852C320.327 4.00301 320.782 4.19944 321.117 4.54866C321.453 4.89788 321.642 5.37137 321.642 5.86523V56.7358C321.642 57.2297 321.453 57.7031 321.117 58.0523C320.782 58.4015 320.327 58.598 319.852 58.5985Z" fill="white"/>
<path d="M295.96 76.976C296.536 76.4227 297.221 76.0075 297.968 75.7596C298.715 75.5117 299.505 75.4372 300.282 75.5412C301.059 75.6452 301.805 75.9253 302.467 76.3618C303.129 76.7982 303.691 77.3803 304.114 78.0672L316.176 75.8361L319.267 83.1316L302.19 86.0335C301.034 86.6953 299.685 86.8929 298.398 86.5888C297.111 86.2848 295.976 85.5002 295.208 84.3838C294.441 83.2673 294.093 81.8966 294.231 80.5313C294.37 79.166 294.985 77.901 295.96 76.976Z" fill="#FFB6B6"/>
<path d="M307.128 86.2911L319.703 86.128L321.295 86.1056L346.879 85.7702C346.879 85.7702 353.827 78.8743 359.876 71.7745L359.029 65.3936C358.201 59.1314 355.216 53.3952 350.627 49.2524C341.962 55.2759 336.937 67.1987 336.937 67.1987L321.074 71.1462L319.487 71.541L309.63 73.9915L307.128 86.2911Z" fill="#404B69"/>
<path d="M371.501 125.511H348.028C348.028 126.557 322.369 127.406 322.369 127.406C321.803 127.85 321.287 128.359 320.831 128.923C319.462 130.623 318.713 132.771 318.718 134.989V136.505C318.718 139.019 319.679 141.429 321.387 143.206C323.095 144.984 325.412 145.983 327.828 145.984H371.501C373.917 145.981 376.233 144.982 377.941 143.205C379.649 141.428 380.609 139.019 380.611 136.505V134.989C380.608 132.476 379.647 130.067 377.939 128.291C376.231 126.514 373.916 125.514 371.501 125.511Z" fill="#E4E4E4"/>
<path d="M354.432 145.607H344.957V202.504H354.432V145.607Z" fill="#E4E4E4"/>
<path d="M317.991 202.158C317.991 203.223 332.348 202.57 350.059 202.57C367.769 202.57 382.126 203.223 382.126 202.158C382.126 201.092 367.769 192.646 350.059 192.646C332.348 192.646 317.991 201.092 317.991 202.158Z" fill="#E4E4E4"/>
<path d="M311.626 195.656L304.575 195.656L301.22 167.359L311.627 167.36L311.626 195.656Z" fill="#FFB6B6"/>
<path d="M313.425 202.768L290.688 202.767V202.468C290.688 200.026 291.621 197.684 293.28 195.957C294.94 194.231 297.191 193.261 299.538 193.26H299.538L313.425 193.261L313.425 202.768Z" fill="#2F2E41"/>
<path d="M290.786 195.656L283.734 195.656L280.38 167.359L290.786 167.36L290.786 195.656Z" fill="#FFB6B6"/>
<path d="M292.584 202.768L269.847 202.767V202.468C269.847 200.026 270.78 197.684 272.439 195.957C274.099 194.231 276.35 193.261 278.697 193.26H278.697L292.584 193.261L292.584 202.768Z" fill="#2F2E41"/>
<path d="M353.95 32.7486C360.721 32.7486 366.21 27.0377 366.21 19.9929C366.21 12.9482 360.721 7.2373 353.95 7.2373C347.179 7.2373 341.69 12.9482 341.69 19.9929C341.69 27.0377 347.179 32.7486 353.95 32.7486Z" fill="#FFB6B6"/>
<path d="M373.793 107.39C373.793 107.39 377.907 130.021 362.255 132.903C346.603 135.785 324.009 137.811 324.009 137.811L313.862 187.062L300.231 185.795C300.231 185.795 302.044 126.508 306.502 121.87C310.961 117.231 339.139 103.343 339.139 103.343L373.793 107.39Z" fill="#2F2E41"/>
<path d="M343.224 97.9048L336.378 105.05C336.378 105.05 286.95 113.333 285.043 125.21C282.164 143.142 278.764 182.137 278.764 182.137L293.625 180.977L299.452 136.651L323.23 131.024L350.283 115.685L343.224 97.9048Z" fill="#2F2E41"/>
<path d="M365.748 12.3787C364.538 10.003 363 5.26824 360.557 4.39011C359.2 3.92212 357.798 3.61137 356.376 3.46349L352.224 5.12497L354.484 3.29643C354.044 3.26916 353.604 3.24686 353.165 3.22955L350.363 4.35055L351.797 3.19076C349.185 3.16287 346.489 3.44541 344.465 5.09959C342.74 6.50978 341.03 11.8519 340.754 14.1163C340.459 16.2825 340.562 18.4874 341.059 20.6134L341.768 21.3153C342.016 20.7233 342.203 20.1053 342.325 19.472C342.579 18.2886 343.068 17.1733 343.759 16.1972C344.451 15.2211 345.33 14.4056 346.341 13.8027L346.38 13.78C347.57 13.0833 349.014 13.1154 350.378 13.1665L356.859 13.4091C358.418 13.4675 360.097 13.5701 361.313 14.5877C362.086 15.3383 362.693 16.2539 363.094 17.2716C363.698 18.54 364.878 23.3239 364.878 23.3239C364.878 23.3239 365.546 22.4209 365.866 23.093C366.379 21.3394 366.691 19.5288 366.796 17.6989C366.898 15.8608 366.537 14.0269 365.748 12.3787Z" fill="#2F2E41"/>
<path d="M408.629 25.5947C407.847 25.6483 407.086 25.8796 406.399 26.2724C405.712 26.6652 405.117 27.2099 404.654 27.8681C404.191 28.5264 403.873 29.2821 403.722 30.0822C403.57 30.8822 403.589 31.7071 403.777 32.4987L393.918 40.0651L396.876 47.42L410.655 36.5314C411.912 36.1145 412.979 35.2323 413.653 34.052C414.327 32.8716 414.561 31.4751 414.311 30.127C414.062 28.7789 413.345 27.5729 412.298 26.7376C411.251 25.9023 409.946 25.4956 408.629 25.5947Z" fill="#FFB6B6"/>
<path d="M407.043 41.0415L382.327 69.6001C382.327 69.6001 370.507 65.6635 361.366 61.3956L357.259 48.2732C356.306 45.2289 355.899 42.0281 356.059 38.8306C368.731 35.3224 383.47 48.376 383.47 48.376L401.971 33.2988L407.043 41.0415Z" fill="#404B69"/>
<path d="M349.371 109.499C344.961 107.914 340.401 106.275 335.483 105.66L335.272 105.634L335.33 105.421C340.421 86.823 339.151 74.9261 336.656 57.0553C336.125 53.2006 336.807 49.2707 338.599 45.8522C340.392 42.4337 343.199 39.71 346.601 38.0874L346.631 38.0732L360.678 37.1446L360.71 37.1426L370.926 40.2685C372.396 40.7216 373.682 41.6634 374.588 42.9497C375.494 44.236 375.969 45.7958 375.942 47.3902C375.831 53.2674 376.066 59.829 376.314 66.7758C376.872 82.3605 377.448 98.4759 374.177 108.932L374.16 108.987L374.116 109.022C371.109 111.571 367.342 112.947 363.464 112.916C358.878 112.916 354.199 111.234 349.371 109.499Z" fill="#404B69"/>
<path d="M451.347 204H0.65318C0.479947 204 0.313809 203.928 0.191315 203.801C0.0688201 203.674 0 203.501 0 203.32C0 203.14 0.0688201 202.967 0.191315 202.84C0.313809 202.712 0.479947 202.641 0.65318 202.641H451.347C451.52 202.641 451.686 202.712 451.809 202.84C451.931 202.967 452 203.14 452 203.32C452 203.501 451.931 203.674 451.809 203.801C451.686 203.928 451.52 204 451.347 204Z" fill="#CCCCCC"/>
<path d="M239.836 23.0748C238.964 23.3256 238.223 24.1815 237.656 25.598L237.387 26.262L237.104 26.2546C236.944 26.2473 236.472 26.2178 236.05 26.1882C234.851 26.0997 233.986 26.3063 233.412 26.8154C232.983 27.2064 232.911 27.413 232.904 28.2909C232.896 29.0361 232.904 29.0878 233.165 29.6411C233.441 30.2239 233.965 31.0281 234.233 31.2716C234.437 31.4634 234.43 31.5077 234.117 31.8914L233.848 32.2234L234.066 32.4004L234.277 32.5701L234.539 32.2602L234.808 31.9504L235.396 32.4816C235.716 32.7693 236.159 33.1382 236.37 33.3005L236.762 33.603L236.85 34.2818C236.901 34.6581 236.995 35.2262 237.068 35.5434C237.14 35.8533 237.184 36.1263 237.155 36.141C237.126 36.1632 236.77 36.2148 236.363 36.2664C234.604 36.4878 233.369 35.9123 233.369 34.8646C233.369 34.6286 233.34 34.5917 233.114 34.5179C232.918 34.4515 232.86 34.4589 232.824 34.54C232.686 34.9089 232.911 35.6983 233.267 36.0672C233.957 36.7903 234.895 36.9526 237.169 36.7534C237.358 36.7386 237.387 36.7755 237.591 37.2846C238.071 38.5019 238.834 39.5127 239.509 39.8373C240.505 40.3169 241.544 39.8521 242.38 38.561C242.584 38.2511 242.86 37.7051 243.012 37.3436L243.274 36.6944L243.623 36.7386L243.964 36.7903L243.993 36.5247C244.022 36.2664 244.015 36.2517 243.746 36.2148C243.434 36.1632 243.419 36.1189 243.579 35.5287C243.637 35.3073 243.717 34.872 243.761 34.5695C243.804 34.2597 243.855 33.9203 243.877 33.8096C243.906 33.6768 244.11 33.4555 244.546 33.1013C244.895 32.8136 245.323 32.4373 245.498 32.2529L245.81 31.9209L246.014 32.1496C246.333 32.5332 246.799 33.2563 246.995 33.6989C247.394 34.5695 247.351 35.2704 246.878 35.75C246.617 36.0156 246.595 36.0672 246.639 36.296C246.66 36.4361 246.704 36.5542 246.733 36.5542C246.82 36.5542 247.278 36.1927 247.416 36.0156C248.15 35.0934 247.743 33.4038 246.406 31.8028L246.159 31.5151L246.435 31.2126C247.3 30.2535 247.896 28.8812 247.809 28.0253C247.663 26.5645 246.094 25.871 243.819 26.2546L243.252 26.3432L243.172 26.0997C243.07 25.7825 243.012 25.7529 242.751 25.8931C242.554 25.989 242.54 26.0259 242.598 26.1956C242.707 26.4834 242.7 26.4907 242.22 26.6235C241.966 26.6973 241.435 26.8818 241.028 27.0441L240.294 27.3318L239.575 27.0441C239.182 26.8891 238.652 26.6973 238.405 26.6309C238.085 26.5424 237.947 26.4686 237.947 26.3801C237.947 26.1735 238.412 25.1701 238.725 24.7053C239.284 23.8716 239.815 23.5248 240.454 23.5912C240.781 23.6207 240.832 23.606 240.977 23.4215L241.137 23.2223L240.948 23.1338C240.658 23.001 240.193 22.9715 239.836 23.0748ZM237.046 26.8522L237.198 26.9039L237.068 27.4572C236.995 27.7671 236.893 28.3352 236.842 28.7189L236.748 29.4198L236.355 29.7149C236.145 29.8772 235.694 30.2535 235.367 30.5486L234.771 31.0872L234.553 30.8142C233.783 29.8329 233.369 28.9328 233.369 28.2393C233.369 27.745 233.514 27.4499 233.892 27.1621C234.335 26.8227 234.749 26.7416 235.876 26.7711C236.435 26.7858 236.959 26.8227 237.046 26.8522ZM246.253 26.8818C246.624 26.9998 247.075 27.4277 247.184 27.7524C247.293 28.0917 247.235 28.6672 247.038 29.1763C246.886 29.5894 246.37 30.4232 245.992 30.8732L245.788 31.1167L245.374 30.7109C245.149 30.4896 244.713 30.1059 244.408 29.8551L243.855 29.405L243.804 28.9402C243.746 28.4459 243.514 27.2359 243.434 27.0219C243.397 26.926 243.441 26.8891 243.666 26.8522C243.819 26.8227 243.979 26.7932 244.015 26.7711C244.175 26.7121 245.992 26.8006 246.253 26.8818ZM238.812 27.3392C239.153 27.4572 239.459 27.5827 239.495 27.6196C239.539 27.6638 239.364 27.7892 239.03 27.9663C238.732 28.1139 238.281 28.3721 238.02 28.5418C237.758 28.7115 237.504 28.8812 237.446 28.9107C237.366 28.9623 237.358 28.9107 237.395 28.6525C237.475 28.1212 237.671 27.1547 237.707 27.0883C237.751 27.0072 238.056 27.081 238.812 27.3392ZM242.99 27.6417C243.158 28.4754 243.238 28.9549 243.216 28.9549C243.201 28.9549 242.932 28.7926 242.62 28.6008C242.307 28.4016 241.813 28.1139 241.523 27.9589C241.116 27.745 241.014 27.6638 241.101 27.6122C241.239 27.531 242.678 27.0441 242.787 27.0367C242.831 27.0367 242.918 27.3097 242.99 27.6417ZM242.605 29.2353C243.296 29.6854 243.303 29.7001 243.354 30.0395C243.412 30.4748 243.412 32.666 243.354 33.0275C243.31 33.2784 243.245 33.3448 242.627 33.7506C242.256 33.9941 241.581 34.3925 241.13 34.6359L240.309 35.0712L239.618 34.7171C238.914 34.3556 237.744 33.6473 237.431 33.3891C237.257 33.2489 237.257 33.2341 237.235 31.6405C237.22 30.7625 237.228 29.9583 237.257 29.8624C237.307 29.6411 238.216 29.0287 239.437 28.3869L240.309 27.9294L241.108 28.35C241.544 28.5861 242.22 28.9845 242.605 29.2353ZM236.639 31.5003C236.639 33.0202 236.712 32.9685 235.774 32.0758L235.156 31.4929L235.883 30.8511C236.276 30.4969 236.61 30.2092 236.624 30.2092C236.632 30.2092 236.639 30.792 236.639 31.5003ZM244.778 30.9175L245.425 31.5003L245.265 31.67C245.091 31.8692 244.008 32.7915 243.964 32.7915C243.95 32.7915 243.935 32.2086 243.935 31.5077C243.935 30.4232 243.95 30.2239 244.037 30.2756C244.088 30.3051 244.422 30.5928 244.778 30.9175ZM243.107 34.9384C242.911 35.9197 242.896 35.964 242.78 35.964C242.613 35.964 241.072 35.4327 241.072 35.3811C241.072 35.3516 241.326 35.1893 241.639 35.0196C241.944 34.8499 242.431 34.5695 242.707 34.3925C242.99 34.2154 243.223 34.09 243.238 34.1195C243.252 34.149 243.187 34.5179 243.107 34.9384ZM237.998 34.481C238.318 34.6802 238.812 34.9606 239.103 35.1155C239.393 35.2631 239.618 35.3959 239.611 35.4106C239.553 35.4623 237.78 36.0377 237.751 36.0082C237.722 35.9787 237.366 34.3113 237.366 34.1933C237.366 34.0826 237.38 34.09 237.998 34.481ZM241.799 36.2664C242.256 36.4214 242.642 36.5763 242.656 36.6132C242.693 36.7239 242.235 37.742 241.929 38.229C240.774 40.0808 239.379 39.83 238.31 37.5797C238.15 37.2329 238.005 36.8641 237.998 36.7534C237.983 36.5616 238.02 36.5394 238.819 36.2664C239.277 36.1041 239.8 35.9123 239.982 35.8311C240.309 35.691 240.309 35.691 240.636 35.8311C240.818 35.9123 241.341 36.1041 241.799 36.2664Z" fill="#00818A"/>
<path d="M239.873 30.1502C239.495 30.2904 239.168 30.5855 239.023 30.9323C238.623 31.8471 239.219 32.8505 240.2 32.9243C241.682 33.035 242.293 31.0282 241.006 30.2978C240.665 30.0986 240.171 30.0396 239.873 30.1502ZM240.679 30.8659C241.326 31.2643 241.036 32.2751 240.28 32.2751C239.524 32.2751 239.219 31.2643 239.866 30.8659C239.989 30.7921 240.171 30.7257 240.273 30.7257C240.374 30.7257 240.556 30.7921 240.679 30.8659Z" fill="#404B69"/>
<path d="M241.653 23.4287C240.97 23.7091 240.723 24.6313 241.196 25.1921C241.733 25.8413 242.685 25.7675 243.056 25.0445C243.223 24.7199 243.194 24.1223 242.991 23.8419C242.715 23.4509 242.09 23.259 241.653 23.4287ZM242.264 24.019C242.526 24.1444 242.656 24.4985 242.518 24.742C242.199 25.3249 241.326 24.9338 241.574 24.3215C241.653 24.1296 241.864 23.96 242.031 23.9452C242.06 23.9378 242.162 23.9747 242.264 24.019Z" fill="#404B69"/>
<path d="M264.657 26.9971C264.475 27.034 264.192 27.1151 264.025 27.1815L263.712 27.2996V30.7524V34.2127L263.989 34.2864C264.461 34.4192 265.74 34.5299 266.147 34.4783C266.627 34.4192 267.317 34.0946 267.622 33.7774C268.124 33.2757 268.327 32.5895 268.276 31.6083C268.204 30.2507 267.608 29.4539 266.518 29.2768C266.183 29.2252 265.587 29.2768 265.231 29.3875C265.1 29.4318 265.093 29.3801 265.093 28.1775C265.093 27.484 265.071 26.9159 265.042 26.9233C265.006 26.9307 264.839 26.9602 264.657 26.9971ZM266.51 30.6934C266.852 31.018 266.983 31.6378 266.837 32.2796C266.67 33.0396 266.031 33.4749 265.348 33.2757L265.13 33.2166L265.108 31.9181L265.093 30.6196L265.289 30.5458C265.406 30.5016 265.667 30.4647 265.878 30.4647C266.212 30.4573 266.292 30.4868 266.51 30.6934Z" fill="#404B69"/>
<path d="M271.728 27.6532C270.246 27.9557 269.236 29.3575 269.236 31.1134C269.243 32.5447 269.802 33.6293 270.791 34.131C271.75 34.6253 273.516 34.6105 274.483 34.1015L274.672 33.9982L274.49 33.4227L274.301 32.8472L273.894 32.9948C273.313 33.194 272.404 33.2383 271.939 33.0833C271.198 32.8325 270.762 32.0799 270.762 31.047C270.762 30.1469 271.081 29.4534 271.656 29.1214C271.924 28.9664 272.048 28.9443 272.688 28.9517C273.262 28.9517 273.494 28.9886 273.792 29.114L274.17 29.2689L274.323 28.8484C274.599 28.1032 274.599 28.059 274.25 27.9188C273.487 27.6089 272.484 27.5056 271.728 27.6532Z" fill="#404B69"/>
<path d="M255.137 30.103C255.137 32.7738 255.122 32.8771 254.628 33.1353C254.316 33.2977 253.756 33.2608 253.262 33.0394C253.087 32.9583 252.913 32.8919 252.884 32.8919C252.855 32.8919 252.775 33.0173 252.717 33.1649C252.651 33.3198 252.557 33.5706 252.492 33.7182L252.375 33.9912L252.688 34.1756C253.313 34.5445 254.723 34.6035 255.427 34.2863C255.791 34.124 256.183 33.7698 256.343 33.4747C256.583 33.0025 256.619 32.368 256.598 29.0701L256.59 27.7273H255.864H255.137V30.103Z" fill="#404B69"/>
<path d="M259.374 29.3356C258.24 29.7488 257.702 30.6415 257.768 32.0359C257.804 32.8327 258.008 33.3713 258.451 33.814C259.628 34.9871 261.779 34.5813 262.361 33.0762C262.768 32.0212 262.571 30.7005 261.896 29.9185C261.387 29.3282 260.166 29.0479 259.374 29.3356ZM260.784 30.7153C261.074 31.0252 261.198 31.4678 261.147 32.0581C261.089 32.818 260.711 33.2828 260.151 33.2828C259.592 33.2828 259.228 32.818 259.156 32.0212C259.04 30.73 260.042 29.9185 260.784 30.7153Z" fill="#404B69"/>
<path d="M276.975 29.2987C276.423 29.4906 276.067 29.7267 275.776 30.0956C275.398 30.5899 275.238 31.1358 275.246 31.9327C275.253 33.0615 275.667 33.7919 276.561 34.2346C276.997 34.4559 277.106 34.478 277.666 34.478C278.174 34.4706 278.356 34.4411 278.683 34.2862C279.606 33.8435 280.064 33.032 280.064 31.822C280.064 30.6932 279.584 29.8595 278.69 29.4389C278.211 29.2176 277.419 29.1512 276.975 29.2987ZM278.174 30.5973C278.487 30.8186 278.639 31.2391 278.647 31.8589C278.647 32.4786 278.487 32.8844 278.16 33.1353C277.905 33.3271 277.426 33.3271 277.171 33.1353C276.532 32.6704 276.452 31.2096 277.033 30.671C277.368 30.3612 277.796 30.3316 278.174 30.5973Z" fill="#404B69"/>
<path d="M282.462 29.2764C282.12 29.306 281.706 29.3724 281.532 29.4166L281.226 29.5052V31.9325V34.3672H281.917H282.607V32.412V30.4569H283.087C284.017 30.4569 284.061 30.5676 284.061 32.7441V34.3672H284.758H285.449L285.427 32.4637C285.405 30.634 285.398 30.5528 285.231 30.2061C284.845 29.4166 284.002 29.1289 282.462 29.2764Z" fill="#404B69"/>
<path d="M288.603 29.2841C287.484 29.4538 286.8 30.14 286.597 31.3057C286.357 32.7148 286.909 33.9912 287.905 34.3306C288.29 34.456 289.177 34.456 289.569 34.3306L289.729 34.279V35.2086V36.1382H290.42H291.11V32.8181V29.5055L290.827 29.4243C290.587 29.3579 289.191 29.1882 289.075 29.2103C289.053 29.2177 288.843 29.2472 288.603 29.2841ZM289.729 31.7778V33.0985L289.468 33.187C289.322 33.2387 289.046 33.2608 288.85 33.246C288.232 33.1796 287.985 32.8034 287.985 31.918C287.992 30.8851 288.356 30.4572 289.242 30.4572H289.729V31.7778Z" fill="#404B69"/>
<path d="M299.38 29.3798C298.879 29.5864 298.61 29.8078 298.312 30.2357C297.941 30.7816 297.847 31.1727 297.883 32.0285C297.905 32.663 297.948 32.8474 298.116 33.209C298.355 33.718 298.842 34.1386 299.409 34.3378C299.932 34.5222 301.153 34.5222 301.749 34.3452L302.178 34.2124L302.127 33.7918C302.04 33.0245 302.047 33.0393 301.662 33.1647C301.473 33.2237 301.059 33.2754 300.739 33.2754C299.911 33.2827 299.453 33.0319 299.286 32.4638L299.242 32.3015H300.833H302.432L302.476 32.0801C302.534 31.7555 302.396 30.7964 302.236 30.4201C301.793 29.402 300.477 28.9224 299.38 29.3798ZM300.695 30.4939C300.899 30.5972 301.139 30.9956 301.139 31.2243C301.139 31.3276 301.008 31.3424 300.194 31.3424C299.678 31.3424 299.249 31.3276 299.249 31.3055C299.249 31.2907 299.3 31.1358 299.373 30.9661C299.576 30.4496 300.194 30.2283 300.695 30.4939Z" fill="#404B69"/>
<path d="M305.099 29.2764C304.86 29.306 304.424 29.3871 304.14 29.4535L303.61 29.5863V31.9767V34.3672H304.3H304.99L305.005 32.4268L305.027 30.4938L305.557 30.4717C305.848 30.4569 306.197 30.479 306.335 30.5233L306.582 30.5897L306.662 30.1987C306.8 29.5125 306.793 29.4092 306.589 29.3502C306.269 29.2617 305.55 29.2248 305.099 29.2764Z" fill="#404B69"/>
<path d="M309.009 29.3062C308.057 29.6234 307.483 30.3169 307.323 31.3499C307.171 32.3164 307.519 33.4452 308.123 33.9321C308.624 34.3305 309.031 34.4707 309.714 34.4707C310.731 34.4707 311.422 34.0575 311.836 33.2017C312.069 32.7295 312.076 32.6705 312.076 31.8589C312.076 31.1359 312.054 30.9588 311.916 30.6563C311.647 30.0735 311.349 29.7488 310.833 29.4906C310.281 29.2103 309.518 29.1365 309.009 29.3062ZM310.223 30.5973C310.572 30.8555 310.695 31.1802 310.695 31.822C310.695 32.759 310.346 33.2829 309.714 33.2829C309.002 33.2829 308.566 32.4639 308.726 31.3941C308.784 31.0252 309.176 30.4866 309.445 30.435C309.7 30.376 310.027 30.4497 310.223 30.5973Z" fill="#404B69"/>
<path d="M314.7 29.2838C314.423 29.3133 313.987 29.3945 313.733 29.4683L313.275 29.5937V31.9767V34.3672H313.966H314.656L314.67 32.4268L314.692 30.4938L315.186 30.4717C315.455 30.4569 315.79 30.4864 315.935 30.5233C316.356 30.6413 316.4 30.5897 316.4 29.9404V29.3576L316.059 29.3133C315.375 29.2322 315.194 29.2248 314.7 29.2838Z" fill="#404B69"/>
<path d="M292.433 31.0988C292.476 33.0096 292.527 33.3416 292.898 33.8286C293.007 33.9835 293.261 34.168 293.501 34.286C293.864 34.4557 293.988 34.4778 294.707 34.4705C295.405 34.4557 296.175 34.3672 296.582 34.2491C296.699 34.2122 296.706 34.0278 296.706 31.7775V29.3502H296.015H295.325V31.3054V33.2605H294.845C293.922 33.2605 293.864 33.1277 293.813 30.9512L293.777 29.3502H293.087H292.404L292.433 31.0988Z" fill="#404B69"/>
<path d="M233.18 32.7104C232.889 32.8358 232.7 33.1678 232.736 33.4777C232.78 33.8171 232.94 34.0163 233.26 34.1196C233.979 34.363 234.539 33.3965 233.994 32.8727C233.805 32.6883 233.405 32.6145 233.18 32.7104ZM233.696 33.4187C233.696 33.6105 233.667 33.64 233.47 33.6621C233.223 33.6843 233.114 33.5441 233.194 33.2933C233.223 33.1826 233.289 33.1604 233.463 33.1752C233.667 33.1973 233.696 33.2268 233.696 33.4187Z" fill="#404B69"/>
<path d="M244.836 35.7794C244.567 35.9269 244.415 36.2516 244.415 36.6426C244.415 37.1664 244.778 37.5132 245.323 37.5132C246.13 37.5132 246.522 36.5245 245.955 35.9417C245.687 35.6761 245.156 35.5949 244.836 35.7794ZM245.49 36.3032C245.723 36.4655 245.708 36.827 245.469 36.9377C245.033 37.1369 244.691 36.5762 245.083 36.3032C245.171 36.2368 245.265 36.1852 245.287 36.1852C245.309 36.1852 245.403 36.2368 245.49 36.3032Z" fill="#404B69"/>
</g>
<defs>
<clipPath id="clip0_250_126">
<rect width="452" height="204" fill="white"/>
</clipPath>
</defs>
</svg>
